<?xml version="1.0" encoding="UTF-8" standalone="no"?>
<!DOCTYPE svg PUBLIC "-//W3C//DTD SVG 1.1//EN"
 "http://www.w3.org/Graphics/SVG/1.1/DTD/svg11.dtd">
<!-- Generated by graphviz version 2.47.0 (20210316.0004)
 -->
<!-- Title: dependencies Pages: 1 -->
<svg width="1063pt" height="211pt"
 viewBox="0.00 0.00 1063.00 211.00" xmlns="http://www.w3.org/2000/svg" xmlns:xlink="http://www.w3.org/1999/xlink">
<g id="graph0" class="graph" transform="scale(1 1) rotate(0) translate(4 207)">
<title>dependencies</title>
<polygon fill="white" stroke="transparent" points="-4,4 -4,-207 1059,-207 1059,4 -4,4"/>
<text text-anchor="start" x="506.51" y="-42.4" font-family="Times-12" font-weight="bold" font-size="14.00">Legend</text>
<polygon fill="#ffffb3" stroke="transparent" points="293.5,-10 293.5,-30 313.5,-30 313.5,-10 293.5,-10"/>
<text text-anchor="start" x="317.13" y="-15.4" font-family="Times-12" font-size="14.00"> &#160;Declarations</text>
<polygon fill="#8dd3c7" stroke="transparent" points="406.5,-10 406.5,-30 426.5,-30 426.5,-10 406.5,-10"/>
<text text-anchor="start" x="430.23" y="-15.4" font-family="Times-12" font-size="14.00"> &#160;Module</text>
<polygon fill="#80b1d3" stroke="transparent" points="492.5,-10 492.5,-30 512.5,-30 512.5,-10 492.5,-10"/>
<text text-anchor="start" x="516.28" y="-15.4" font-family="Times-12" font-size="14.00"> &#160;Bootstrap</text>
<polygon fill="#fdb462" stroke="transparent" points="589.5,-10 589.5,-30 609.5,-30 609.5,-10 589.5,-10"/>
<text text-anchor="start" x="613.17" y="-15.4" font-family="Times-12" font-size="14.00"> &#160;Providers</text>
<polygon fill="#fb8072" stroke="transparent" points="685.5,-10 685.5,-30 705.5,-30 705.5,-10 685.5,-10"/>
<text text-anchor="start" x="709.23" y="-15.4" font-family="Times-12" font-size="14.00"> &#160;Exports</text>
<g id="clust1" class="cluster">
<title>cluster_AdminModule</title>
<polygon fill="none" stroke="black" stroke-dasharray="1,5" points="8,-70 8,-195 1047,-195 1047,-70 8,-70"/>
</g>
<g id="clust2" class="cluster">
<title>cluster_AdminModule_declarations</title>
<polygon fill="none" stroke="black" points="739,-78 739,-130 1039,-130 1039,-78 739,-78"/>
</g>
<g id="clust5" class="cluster">
<title>cluster_AdminModule_imports</title>
<polygon fill="none" stroke="black" points="16,-78 16,-130 731,-130 731,-78 16,-78"/>
</g>
<!-- SlideBarComponent -->
<g id="node1" class="node">
<title>SlideBarComponent</title>
<polygon fill="#ffffb3" stroke="black" points="1031.32,-122 900.68,-122 900.68,-86 1031.32,-86 1031.32,-122"/>
<text text-anchor="middle" x="966" y="-99.8" font-family="Times,serif" font-size="14.00">SlideBarComponent</text>
</g>
<!-- AdminModule -->
<g id="node3" class="node">
<title>AdminModule</title>
<polygon fill="#8dd3c7" stroke="black" points="595.44,-187 592.44,-191 571.44,-191 568.44,-187 496.56,-187 496.56,-151 595.44,-151 595.44,-187"/>
<text text-anchor="middle" x="546" y="-164.8" font-family="Times,serif" font-size="14.00">AdminModule</text>
</g>
<!-- SlideBarComponent&#45;&gt;AdminModule -->
<g id="edge1" class="edge">
<title>SlideBarComponent&#45;&gt;AdminModule</title>
<path fill="none" stroke="black" d="M966,-122.29C966,-144.21 966,-178 966,-178 966,-178 605.41,-178 605.41,-178"/>
<polygon fill="black" stroke="black" points="605.41,-174.5 595.41,-178 605.41,-181.5 605.41,-174.5"/>
</g>
<!-- DashbordComponent -->
<g id="node2" class="node">
<title>DashbordComponent</title>
<polygon fill="#ffffb3" stroke="black" points="882.76,-122 747.24,-122 747.24,-86 882.76,-86 882.76,-122"/>
<text text-anchor="middle" x="815" y="-99.8" font-family="Times,serif" font-size="14.00">DashbordComponent</text>
</g>
<!-- DashbordComponent&#45;&gt;AdminModule -->
<g id="edge2" class="edge">
<title>DashbordComponent&#45;&gt;AdminModule</title>
<path fill="none" stroke="black" d="M815,-122.11C815,-141.34 815,-169 815,-169 815,-169 605.34,-169 605.34,-169"/>
<polygon fill="black" stroke="black" points="605.34,-165.5 595.34,-169 605.34,-172.5 605.34,-165.5"/>
</g>
<!-- CommonModule -->
<g id="node4" class="node">
<title>CommonModule</title>
<polygon fill="#8dd3c7" stroke="black" points="722.67,-122 719.67,-126 698.67,-126 695.67,-122 611.33,-122 611.33,-86 722.67,-86 722.67,-122"/>
<text text-anchor="middle" x="667" y="-99.8" font-family="Times,serif" font-size="14.00">CommonModule</text>
</g>
<!-- CommonModule&#45;&gt;AdminModule -->
<g id="edge3" class="edge">
<title>CommonModule&#45;&gt;AdminModule</title>
<path fill="none" stroke="black" d="M667,-122.03C667,-138.4 667,-160 667,-160 667,-160 605.56,-160 605.56,-160"/>
<polygon fill="black" stroke="black" points="605.56,-156.5 595.56,-160 605.56,-163.5 605.56,-156.5"/>
</g>
<!-- PublicModule -->
<g id="node5" class="node">
<title>PublicModule</title>
<polygon fill="#8dd3c7" stroke="black" points="593.83,-122 590.83,-126 569.83,-126 566.83,-122 498.17,-122 498.17,-86 593.83,-86 593.83,-122"/>
<text text-anchor="middle" x="546" y="-99.8" font-family="Times,serif" font-size="14.00">PublicModule</text>
</g>
<!-- PublicModule&#45;&gt;AdminModule -->
<g id="edge4" class="edge">
<title>PublicModule&#45;&gt;AdminModule</title>
<path fill="none" stroke="black" d="M546,-122.11C546,-122.11 546,-140.99 546,-140.99"/>
<polygon fill="black" stroke="black" points="542.5,-140.99 546,-150.99 549.5,-140.99 542.5,-140.99"/>
</g>
<!-- RouterModule.forChild(args) -->
<g id="node6" class="node">
<title>RouterModule.forChild(args)</title>
<polygon fill="#8dd3c7" stroke="black" points="480.73,-122 477.73,-126 456.73,-126 453.73,-122 299.27,-122 299.27,-86 480.73,-86 480.73,-122"/>
<text text-anchor="middle" x="390" y="-99.8" font-family="Times,serif" font-size="14.00">RouterModule.forChild(args)</text>
</g>
<!-- RouterModule.forChild(args)&#45;&gt;AdminModule -->
<g id="edge5" class="edge">
<title>RouterModule.forChild(args)&#45;&gt;AdminModule</title>
<path fill="none" stroke="black" d="M390,-122.03C390,-138.4 390,-160 390,-160 390,-160 486.64,-160 486.64,-160"/>
<polygon fill="black" stroke="black" points="486.64,-163.5 496.64,-160 486.64,-156.5 486.64,-163.5"/>
</g>
<!-- FormsModule -->
<g id="node7" class="node">
<title>FormsModule</title>
<polygon fill="#8dd3c7" stroke="black" points="281.83,-122 278.83,-126 257.83,-126 254.83,-122 186.17,-122 186.17,-86 281.83,-86 281.83,-122"/>
<text text-anchor="middle" x="234" y="-99.8" font-family="Times,serif" font-size="14.00">FormsModule</text>
</g>
<!-- FormsModule&#45;&gt;AdminModule -->
<g id="edge6" class="edge">
<title>FormsModule&#45;&gt;AdminModule</title>
<path fill="none" stroke="black" d="M234,-122.11C234,-141.34 234,-169 234,-169 234,-169 486.56,-169 486.56,-169"/>
<polygon fill="black" stroke="black" points="486.56,-172.5 496.56,-169 486.56,-165.5 486.56,-172.5"/>
</g>
<!-- ReactiveFormsModule -->
<g id="node8" class="node">
<title>ReactiveFormsModule</title>
<polygon fill="#8dd3c7" stroke="black" points="168.3,-122 165.3,-126 144.3,-126 141.3,-122 23.7,-122 23.7,-86 168.3,-86 168.3,-122"/>
<text text-anchor="middle" x="96" y="-99.8" font-family="Times,serif" font-size="14.00">ReactiveFormsModule</text>
</g>
<!-- ReactiveFormsModule&#45;&gt;AdminModule -->
<g id="edge7" class="edge">
<title>ReactiveFormsModule&#45;&gt;AdminModule</title>
<path fill="none" stroke="black" d="M96,-122.29C96,-144.21 96,-178 96,-178 96,-178 486.55,-178 486.55,-178"/>
<polygon fill="black" stroke="black" points="486.55,-181.5 496.55,-178 486.55,-174.5 486.55,-181.5"/>
</g>
</g>
</svg>
