<?xml version="1.0" encoding="UTF-8" standalone="no"?>
<!DOCTYPE svg PUBLIC "-//W3C//DTD SVG 1.1//EN"
 "http://www.w3.org/Graphics/SVG/1.1/DTD/svg11.dtd">
<!-- Generated by graphviz version 2.47.0 (20210316.0004)
 -->
<!-- Title: dependencies Pages: 1 -->
<svg width="788pt" height="211pt"
 viewBox="0.00 0.00 788.00 211.00" xmlns="http://www.w3.org/2000/svg" xmlns:xlink="http://www.w3.org/1999/xlink">
<g id="graph0" class="graph" transform="scale(1 1) rotate(0) translate(4 207)">
<title>dependencies</title>
<polygon fill="white" stroke="transparent" points="-4,4 -4,-207 784,-207 784,4 -4,4"/>
<text text-anchor="start" x="369.01" y="-42.4" font-family="Times-12" font-weight="bold" font-size="14.00">Legend</text>
<polygon fill="#ffffb3" stroke="transparent" points="156,-10 156,-30 176,-30 176,-10 156,-10"/>
<text text-anchor="start" x="179.63" y="-15.4" font-family="Times-12" font-size="14.00"> &#160;Declarations</text>
<polygon fill="#8dd3c7" stroke="transparent" points="269,-10 269,-30 289,-30 289,-10 269,-10"/>
<text text-anchor="start" x="292.73" y="-15.4" font-family="Times-12" font-size="14.00"> &#160;Module</text>
<polygon fill="#80b1d3" stroke="transparent" points="355,-10 355,-30 375,-30 375,-10 355,-10"/>
<text text-anchor="start" x="378.78" y="-15.4" font-family="Times-12" font-size="14.00"> &#160;Bootstrap</text>
<polygon fill="#fdb462" stroke="transparent" points="452,-10 452,-30 472,-30 472,-10 452,-10"/>
<text text-anchor="start" x="475.67" y="-15.4" font-family="Times-12" font-size="14.00"> &#160;Providers</text>
<polygon fill="#fb8072" stroke="transparent" points="548,-10 548,-30 568,-30 568,-10 548,-10"/>
<text text-anchor="start" x="571.73" y="-15.4" font-family="Times-12" font-size="14.00"> &#160;Exports</text>
<g id="clust1" class="cluster">
<title>cluster_AdminModule</title>
<polygon fill="none" stroke="black" stroke-dasharray="1,5" points="8,-70 8,-195 772,-195 772,-70 8,-70"/>
</g>
<g id="clust5" class="cluster">
<title>cluster_AdminModule_imports</title>
<polygon fill="none" stroke="black" points="324,-78 324,-130 764,-130 764,-78 324,-78"/>
</g>
<g id="clust2" class="cluster">
<title>cluster_AdminModule_declarations</title>
<polygon fill="none" stroke="black" points="16,-78 16,-130 316,-130 316,-78 16,-78"/>
</g>
<!-- SlideBarComponent -->
<g id="node1" class="node">
<title>SlideBarComponent</title>
<polygon fill="#ffffb3" stroke="black" points="308.32,-122 177.68,-122 177.68,-86 308.32,-86 308.32,-122"/>
<text text-anchor="middle" x="243" y="-99.8" font-family="Times,serif" font-size="14.00">SlideBarComponent</text>
</g>
<!-- AdminModule -->
<g id="node3" class="node">
<title>AdminModule</title>
<polygon fill="#8dd3c7" stroke="black" points="472.44,-187 469.44,-191 448.44,-191 445.44,-187 373.56,-187 373.56,-151 472.44,-151 472.44,-187"/>
<text text-anchor="middle" x="423" y="-164.8" font-family="Times,serif" font-size="14.00">AdminModule</text>
</g>
<!-- SlideBarComponent&#45;&gt;AdminModule -->
<g id="edge1" class="edge">
<title>SlideBarComponent&#45;&gt;AdminModule</title>
<path fill="none" stroke="black" d="M243,-122.02C243,-139.37 243,-163 243,-163 243,-163 363.34,-163 363.34,-163"/>
<polygon fill="black" stroke="black" points="363.34,-166.5 373.34,-163 363.34,-159.5 363.34,-166.5"/>
</g>
<!-- DashbordComponent -->
<g id="node2" class="node">
<title>DashbordComponent</title>
<polygon fill="#ffffb3" stroke="black" points="159.76,-122 24.24,-122 24.24,-86 159.76,-86 159.76,-122"/>
<text text-anchor="middle" x="92" y="-99.8" font-family="Times,serif" font-size="14.00">DashbordComponent</text>
</g>
<!-- DashbordComponent&#45;&gt;AdminModule -->
<g id="edge2" class="edge">
<title>DashbordComponent&#45;&gt;AdminModule</title>
<path fill="none" stroke="black" d="M92,-122.28C92,-143.32 92,-175 92,-175 92,-175 363.45,-175 363.45,-175"/>
<polygon fill="black" stroke="black" points="363.45,-178.5 373.45,-175 363.45,-171.5 363.45,-178.5"/>
</g>
<!-- CommonModule -->
<g id="node4" class="node">
<title>CommonModule</title>
<polygon fill="#8dd3c7" stroke="black" points="755.67,-122 752.67,-126 731.67,-126 728.67,-122 644.33,-122 644.33,-86 755.67,-86 755.67,-122"/>
<text text-anchor="middle" x="700" y="-99.8" font-family="Times,serif" font-size="14.00">CommonModule</text>
</g>
<!-- CommonModule&#45;&gt;AdminModule -->
<g id="edge3" class="edge">
<title>CommonModule&#45;&gt;AdminModule</title>
<path fill="none" stroke="black" d="M700,-122.28C700,-143.32 700,-175 700,-175 700,-175 482.52,-175 482.52,-175"/>
<polygon fill="black" stroke="black" points="482.52,-171.5 472.52,-175 482.52,-178.5 482.52,-171.5"/>
</g>
<!-- PublicModule -->
<g id="node5" class="node">
<title>PublicModule</title>
<polygon fill="#8dd3c7" stroke="black" points="626.83,-122 623.83,-126 602.83,-126 599.83,-122 531.17,-122 531.17,-86 626.83,-86 626.83,-122"/>
<text text-anchor="middle" x="579" y="-99.8" font-family="Times,serif" font-size="14.00">PublicModule</text>
</g>
<!-- PublicModule&#45;&gt;AdminModule -->
<g id="edge4" class="edge">
<title>PublicModule&#45;&gt;AdminModule</title>
<path fill="none" stroke="black" d="M579,-122.02C579,-139.37 579,-163 579,-163 579,-163 482.36,-163 482.36,-163"/>
<polygon fill="black" stroke="black" points="482.36,-159.5 472.36,-163 482.36,-166.5 482.36,-159.5"/>
</g>
<!-- RouterModule.forChild(args) -->
<g id="node6" class="node">
<title>RouterModule.forChild(args)</title>
<polygon fill="#8dd3c7" stroke="black" points="513.73,-122 510.73,-126 489.73,-126 486.73,-122 332.27,-122 332.27,-86 513.73,-86 513.73,-122"/>
<text text-anchor="middle" x="423" y="-99.8" font-family="Times,serif" font-size="14.00">RouterModule.forChild(args)</text>
</g>
<!-- RouterModule.forChild(args)&#45;&gt;AdminModule -->
<g id="edge5" class="edge">
<title>RouterModule.forChild(args)&#45;&gt;AdminModule</title>
<path fill="none" stroke="black" d="M423,-122.11C423,-122.11 423,-140.99 423,-140.99"/>
<polygon fill="black" stroke="black" points="419.5,-140.99 423,-150.99 426.5,-140.99 419.5,-140.99"/>
</g>
</g>
</svg>
