<?xml version="1.0" encoding="UTF-8" standalone="no"?>
<!DOCTYPE svg PUBLIC "-//W3C//DTD SVG 1.1//EN"
 "http://www.w3.org/Graphics/SVG/1.1/DTD/svg11.dtd">
<!-- Generated by graphviz version 2.47.0 (20210316.0004)
 -->
<!-- Title: dependencies Pages: 1 -->
<svg width="4636pt" height="284pt"
 viewBox="0.00 0.00 4636.00 284.00" xmlns="http://www.w3.org/2000/svg" xmlns:xlink="http://www.w3.org/1999/xlink">
<g id="graph0" class="graph" transform="scale(1 1) rotate(0) translate(4 280)">
<title>dependencies</title>
<polygon fill="white" stroke="transparent" points="-4,4 -4,-280 4632,-280 4632,4 -4,4"/>
<text text-anchor="start" x="2293.01" y="-42.4" font-family="Times-12" font-weight="bold" font-size="14.00">Legend</text>
<polygon fill="#ffffb3" stroke="transparent" points="2080,-10 2080,-30 2100,-30 2100,-10 2080,-10"/>
<text text-anchor="start" x="2103.63" y="-15.4" font-family="Times-12" font-size="14.00"> &#160;Declarations</text>
<polygon fill="#8dd3c7" stroke="transparent" points="2193,-10 2193,-30 2213,-30 2213,-10 2193,-10"/>
<text text-anchor="start" x="2216.73" y="-15.4" font-family="Times-12" font-size="14.00"> &#160;Module</text>
<polygon fill="#80b1d3" stroke="transparent" points="2279,-10 2279,-30 2299,-30 2299,-10 2279,-10"/>
<text text-anchor="start" x="2302.78" y="-15.4" font-family="Times-12" font-size="14.00"> &#160;Bootstrap</text>
<polygon fill="#fdb462" stroke="transparent" points="2376,-10 2376,-30 2396,-30 2396,-10 2376,-10"/>
<text text-anchor="start" x="2399.67" y="-15.4" font-family="Times-12" font-size="14.00"> &#160;Providers</text>
<polygon fill="#fb8072" stroke="transparent" points="2472,-10 2472,-30 2492,-30 2492,-10 2472,-10"/>
<text text-anchor="start" x="2495.73" y="-15.4" font-family="Times-12" font-size="14.00"> &#160;Exports</text>
<g id="clust1" class="cluster">
<title>cluster_AppModule</title>
<polygon fill="none" stroke="black" stroke-dasharray="1,5" points="8,-70 8,-268 4620,-268 4620,-70 8,-70"/>
</g>
<g id="clust15" class="cluster">
<title>cluster_AppModule_imports</title>
<polygon fill="none" stroke="black" points="2319,-78 2319,-130 4612,-130 4612,-78 2319,-78"/>
</g>
<g id="clust18" class="cluster">
<title>cluster_AppModule_providers</title>
<polygon fill="none" stroke="black" points="1717,-78 1717,-130 2311,-130 2311,-78 1717,-78"/>
</g>
<g id="clust17" class="cluster">
<title>cluster_AppModule_bootstrap</title>
<polygon fill="none" stroke="black" points="2386,-208 2386,-260 2510,-260 2510,-208 2386,-208"/>
</g>
<g id="clust2" class="cluster">
<title>cluster_AppModule_declarations</title>
<polygon fill="none" stroke="black" points="16,-78 16,-130 1709,-130 1709,-78 16,-78"/>
</g>
<!-- AppComponent -->
<g id="node1" class="node">
<title>AppComponent</title>
<polygon fill="#ffffb3" stroke="black" points="1700.94,-122 1595.06,-122 1595.06,-86 1700.94,-86 1700.94,-122"/>
<text text-anchor="middle" x="1648" y="-99.8" font-family="Times,serif" font-size="14.00">AppComponent</text>
</g>
<!-- AppModule -->
<g id="node13" class="node">
<title>AppModule</title>
<polygon fill="#8dd3c7" stroke="black" points="2489.66,-187 2486.66,-191 2465.66,-191 2462.66,-187 2406.34,-187 2406.34,-151 2489.66,-151 2489.66,-187"/>
<text text-anchor="middle" x="2448" y="-164.8" font-family="Times,serif" font-size="14.00">AppModule</text>
</g>
<!-- AppComponent&#45;&gt;AppModule -->
<g id="edge1" class="edge">
<title>AppComponent&#45;&gt;AppModule</title>
<path fill="none" stroke="black" d="M1648,-122.19C1648,-137.18 1648,-156 1648,-156 1648,-156 2396.11,-156 2396.11,-156"/>
<polygon fill="black" stroke="black" points="2396.11,-159.5 2406.11,-156 2396.11,-152.5 2396.11,-159.5"/>
</g>
<!-- MapComponent -->
<g id="node2" class="node">
<title>MapComponent</title>
<polygon fill="#ffffb3" stroke="black" points="1577.49,-122 1470.51,-122 1470.51,-86 1577.49,-86 1577.49,-122"/>
<text text-anchor="middle" x="1524" y="-99.8" font-family="Times,serif" font-size="14.00">MapComponent</text>
</g>
<!-- MapComponent&#45;&gt;AppModule -->
<g id="edge2" class="edge">
<title>MapComponent&#45;&gt;AppModule</title>
<path fill="none" stroke="black" d="M1524,-122.01C1524,-138.05 1524,-159 1524,-159 1524,-159 2396.2,-159 2396.2,-159"/>
<polygon fill="black" stroke="black" points="2396.2,-162.5 2406.2,-159 2396.2,-155.5 2396.2,-162.5"/>
</g>
<!-- CarteComponent -->
<g id="node3" class="node">
<title>CarteComponent</title>
<polygon fill="#ffffb3" stroke="black" points="1452.65,-122 1341.35,-122 1341.35,-86 1452.65,-86 1452.65,-122"/>
<text text-anchor="middle" x="1397" y="-99.8" font-family="Times,serif" font-size="14.00">CarteComponent</text>
</g>
<!-- CarteComponent&#45;&gt;AppModule -->
<g id="edge3" class="edge">
<title>CarteComponent&#45;&gt;AppModule</title>
<path fill="none" stroke="black" d="M1397,-122.04C1397,-138.73 1397,-161 1397,-161 1397,-161 2396.15,-161 2396.15,-161"/>
<polygon fill="black" stroke="black" points="2396.15,-164.5 2406.15,-161 2396.15,-157.5 2396.15,-164.5"/>
</g>
<!-- SiteComponent -->
<g id="node4" class="node">
<title>SiteComponent</title>
<polygon fill="#ffffb3" stroke="black" points="1323.61,-122 1220.39,-122 1220.39,-86 1323.61,-86 1323.61,-122"/>
<text text-anchor="middle" x="1272" y="-99.8" font-family="Times,serif" font-size="14.00">SiteComponent</text>
</g>
<!-- SiteComponent&#45;&gt;AppModule -->
<g id="edge4" class="edge">
<title>SiteComponent&#45;&gt;AppModule</title>
<path fill="none" stroke="black" d="M1272,-122.02C1272,-139.37 1272,-163 1272,-163 1272,-163 2396.15,-163 2396.15,-163"/>
<polygon fill="black" stroke="black" points="2396.15,-166.5 2406.15,-163 2396.15,-159.5 2396.15,-166.5"/>
</g>
<!-- NavBarComponent -->
<g id="node5" class="node">
<title>NavBarComponent</title>
<polygon fill="#ffffb3" stroke="black" points="1202.37,-122 1077.63,-122 1077.63,-86 1202.37,-86 1202.37,-122"/>
<text text-anchor="middle" x="1140" y="-99.8" font-family="Times,serif" font-size="14.00">NavBarComponent</text>
</g>
<!-- NavBarComponent&#45;&gt;AppModule -->
<g id="edge5" class="edge">
<title>NavBarComponent&#45;&gt;AppModule</title>
<path fill="none" stroke="black" d="M1119.19,-122.17C1119.19,-141.09 1119.19,-168 1119.19,-168 1119.19,-168 2396.04,-168 2396.04,-168"/>
<polygon fill="black" stroke="black" points="2396.04,-171.5 2406.04,-168 2396.04,-164.5 2396.04,-171.5"/>
</g>
<!-- NavBarComponent&#45;&gt;AppModule -->
<g id="edge12" class="edge">
<title>NavBarComponent&#45;&gt;AppModule</title>
<path fill="none" stroke="black" d="M1160.81,-122.27C1160.81,-140.56 1160.81,-166 1160.81,-166 1160.81,-166 2396.27,-166 2396.27,-166"/>
<polygon fill="black" stroke="black" points="2396.27,-169.5 2406.27,-166 2396.27,-162.5 2396.27,-169.5"/>
</g>
<!-- NavbarComponent -->
<g id="node6" class="node">
<title>NavbarComponent</title>
<polygon fill="#ffffb3" stroke="black" points="1059.03,-122 936.97,-122 936.97,-86 1059.03,-86 1059.03,-122"/>
<text text-anchor="middle" x="998" y="-99.8" font-family="Times,serif" font-size="14.00">NavbarComponent</text>
</g>
<!-- NavbarComponent&#45;&gt;AppModule -->
<g id="edge6" class="edge">
<title>NavbarComponent&#45;&gt;AppModule</title>
<path fill="none" stroke="black" d="M998,-122.31C998,-142.15 998,-171 998,-171 998,-171 2396.17,-171 2396.17,-171"/>
<polygon fill="black" stroke="black" points="2396.17,-174.5 2406.17,-171 2396.17,-167.5 2396.17,-174.5"/>
</g>
<!-- DashbordComponent -->
<g id="node7" class="node">
<title>DashbordComponent</title>
<polygon fill="#ffffb3" stroke="black" points="918.76,-122 783.24,-122 783.24,-86 918.76,-86 918.76,-122"/>
<text text-anchor="middle" x="851" y="-99.8" font-family="Times,serif" font-size="14.00">DashbordComponent</text>
</g>
<!-- DashbordComponent&#45;&gt;AppModule -->
<g id="edge7" class="edge">
<title>DashbordComponent&#45;&gt;AppModule</title>
<path fill="none" stroke="black" d="M851,-122.13C851,-142.57 851,-173 851,-173 851,-173 2396.1,-173 2396.1,-173"/>
<polygon fill="black" stroke="black" points="2396.11,-176.5 2406.1,-173 2396.1,-169.5 2396.11,-176.5"/>
</g>
<!-- SlideBarComponent -->
<g id="node8" class="node">
<title>SlideBarComponent</title>
<polygon fill="#ffffb3" stroke="black" points="765.32,-122 634.68,-122 634.68,-86 765.32,-86 765.32,-122"/>
<text text-anchor="middle" x="700" y="-99.8" font-family="Times,serif" font-size="14.00">SlideBarComponent</text>
</g>
<!-- SlideBarComponent&#45;&gt;AppModule -->
<g id="edge8" class="edge">
<title>SlideBarComponent&#45;&gt;AppModule</title>
<path fill="none" stroke="black" d="M700,-122.28C700,-143.32 700,-175 700,-175 700,-175 2396.09,-175 2396.09,-175"/>
<polygon fill="black" stroke="black" points="2396.09,-178.5 2406.09,-175 2396.09,-171.5 2396.09,-178.5"/>
</g>
<!-- LoginComponent -->
<g id="node9" class="node">
<title>LoginComponent</title>
<polygon fill="#ffffb3" stroke="black" points="616.28,-122 501.72,-122 501.72,-86 616.28,-86 616.28,-122"/>
<text text-anchor="middle" x="559" y="-99.8" font-family="Times,serif" font-size="14.00">LoginComponent</text>
</g>
<!-- LoginComponent&#45;&gt;AppModule -->
<g id="edge9" class="edge">
<title>LoginComponent&#45;&gt;AppModule</title>
<path fill="none" stroke="black" d="M559,-122.29C559,-144.21 559,-178 559,-178 559,-178 2395.9,-178 2395.9,-178"/>
<polygon fill="black" stroke="black" points="2395.9,-181.5 2405.9,-178 2395.9,-174.5 2395.9,-181.5"/>
</g>
<!-- RegistrationComponent -->
<g id="node10" class="node">
<title>RegistrationComponent</title>
<polygon fill="#ffffb3" stroke="black" points="483.77,-122 334.23,-122 334.23,-86 483.77,-86 483.77,-122"/>
<text text-anchor="middle" x="409" y="-99.8" font-family="Times,serif" font-size="14.00">RegistrationComponent</text>
</g>
<!-- RegistrationComponent&#45;&gt;AppModule -->
<g id="edge10" class="edge">
<title>RegistrationComponent&#45;&gt;AppModule</title>
<path fill="none" stroke="black" d="M409,-122.01C409,-144.49 409,-180 409,-180 409,-180 2395.88,-180 2395.88,-180"/>
<polygon fill="black" stroke="black" points="2395.88,-183.5 2405.88,-180 2395.88,-176.5 2395.88,-183.5"/>
</g>
<!-- RegisterComponent -->
<g id="node11" class="node">
<title>RegisterComponent</title>
<polygon fill="#ffffb3" stroke="black" points="315.98,-122 188.02,-122 188.02,-86 315.98,-86 315.98,-122"/>
<text text-anchor="middle" x="252" y="-99.8" font-family="Times,serif" font-size="14.00">RegisterComponent</text>
</g>
<!-- RegisterComponent&#45;&gt;AppModule -->
<g id="edge11" class="edge">
<title>RegisterComponent&#45;&gt;AppModule</title>
<path fill="none" stroke="black" d="M252,-122.32C252,-145.66 252,-183 252,-183 252,-183 2396.09,-183 2396.09,-183"/>
<polygon fill="black" stroke="black" points="2396.09,-186.5 2406.09,-183 2396.09,-179.5 2396.09,-186.5"/>
</g>
<!-- GestionSiteComponent -->
<g id="node12" class="node">
<title>GestionSiteComponent</title>
<polygon fill="#ffffb3" stroke="black" points="170.16,-122 23.84,-122 23.84,-86 170.16,-86 170.16,-122"/>
<text text-anchor="middle" x="97" y="-99.8" font-family="Times,serif" font-size="14.00">GestionSiteComponent</text>
</g>
<!-- GestionSiteComponent&#45;&gt;AppModule -->
<g id="edge13" class="edge">
<title>GestionSiteComponent&#45;&gt;AppModule</title>
<path fill="none" stroke="black" d="M97,-122.38C97,-146.28 97,-185 97,-185 97,-185 2396.2,-185 2396.2,-185"/>
<polygon fill="black" stroke="black" points="2396.2,-188.5 2406.2,-185 2396.2,-181.5 2396.2,-188.5"/>
</g>
<!-- AppComponent  -->
<g id="node30" class="node">
<title>AppComponent </title>
<polygon fill="#80b1d3" stroke="black" points="2502.44,-252 2393.56,-252 2393.56,-216 2502.44,-216 2502.44,-252"/>
<text text-anchor="middle" x="2448" y="-229.8" font-family="Times,serif" font-size="14.00">AppComponent </text>
</g>
<!-- AppModule&#45;&gt;AppComponent  -->
<g id="edge30" class="edge">
<title>AppModule&#45;&gt;AppComponent </title>
<path fill="none" stroke="black" stroke-dasharray="1,5" d="M2448,-187.11C2448,-187.11 2448,-205.99 2448,-205.99"/>
<polygon fill="black" stroke="black" points="2444.5,-205.99 2448,-215.99 2451.5,-205.99 2444.5,-205.99"/>
</g>
<!-- BrowserModule -->
<g id="node14" class="node">
<title>BrowserModule</title>
<polygon fill="#8dd3c7" stroke="black" points="4604.47,-122 4601.47,-126 4580.47,-126 4577.47,-122 4497.53,-122 4497.53,-86 4604.47,-86 4604.47,-122"/>
<text text-anchor="middle" x="4551" y="-99.8" font-family="Times,serif" font-size="14.00">BrowserModule</text>
</g>
<!-- BrowserModule&#45;&gt;AppModule -->
<g id="edge14" class="edge">
<title>BrowserModule&#45;&gt;AppModule</title>
<path fill="none" stroke="black" d="M4551,-122.38C4551,-146.28 4551,-185 4551,-185 4551,-185 2500.01,-185 2500.01,-185"/>
<polygon fill="black" stroke="black" points="2500.01,-181.5 2490.01,-185 2500.01,-188.5 2500.01,-181.5"/>
</g>
<!-- AppRoutingModule -->
<g id="node15" class="node">
<title>AppRoutingModule</title>
<polygon fill="#8dd3c7" stroke="black" points="4479.27,-122 4476.27,-126 4455.27,-126 4452.27,-122 4350.73,-122 4350.73,-86 4479.27,-86 4479.27,-122"/>
<text text-anchor="middle" x="4415" y="-99.8" font-family="Times,serif" font-size="14.00">AppRoutingModule</text>
</g>
<!-- AppRoutingModule&#45;&gt;AppModule -->
<g id="edge15" class="edge">
<title>AppRoutingModule&#45;&gt;AppModule</title>
<path fill="none" stroke="black" d="M4415,-122.32C4415,-145.66 4415,-183 4415,-183 4415,-183 2499.99,-183 2499.99,-183"/>
<polygon fill="black" stroke="black" points="2499.99,-179.5 2489.99,-183 2499.99,-186.5 2499.99,-179.5"/>
</g>
<!-- FormsModule -->
<g id="node16" class="node">
<title>FormsModule</title>
<polygon fill="#8dd3c7" stroke="black" points="4332.83,-122 4329.83,-126 4308.83,-126 4305.83,-122 4237.17,-122 4237.17,-86 4332.83,-86 4332.83,-122"/>
<text text-anchor="middle" x="4285" y="-99.8" font-family="Times,serif" font-size="14.00">FormsModule</text>
</g>
<!-- FormsModule&#45;&gt;AppModule -->
<g id="edge16" class="edge">
<title>FormsModule&#45;&gt;AppModule</title>
<path fill="none" stroke="black" d="M4285,-122.01C4285,-144.49 4285,-180 4285,-180 4285,-180 2499.82,-180 2499.82,-180"/>
<polygon fill="black" stroke="black" points="2499.82,-176.5 2489.82,-180 2499.82,-183.5 2499.82,-176.5"/>
</g>
<!-- HttpClientModule -->
<g id="node17" class="node">
<title>HttpClientModule</title>
<polygon fill="#8dd3c7" stroke="black" points="4219.16,-122 4216.16,-126 4195.16,-126 4192.16,-122 4100.84,-122 4100.84,-86 4219.16,-86 4219.16,-122"/>
<text text-anchor="middle" x="4160" y="-99.8" font-family="Times,serif" font-size="14.00">HttpClientModule</text>
</g>
<!-- HttpClientModule&#45;&gt;AppModule -->
<g id="edge17" class="edge">
<title>HttpClientModule&#45;&gt;AppModule</title>
<path fill="none" stroke="black" d="M4160,-122.29C4160,-144.21 4160,-178 4160,-178 4160,-178 2499.89,-178 2499.89,-178"/>
<polygon fill="black" stroke="black" points="2499.89,-174.5 2489.89,-178 2499.89,-181.5 2499.89,-174.5"/>
</g>
<!-- ReactiveFormsModule -->
<g id="node18" class="node">
<title>ReactiveFormsModule</title>
<polygon fill="#8dd3c7" stroke="black" points="4083.3,-122 4080.3,-126 4059.3,-126 4056.3,-122 3938.7,-122 3938.7,-86 4083.3,-86 4083.3,-122"/>
<text text-anchor="middle" x="4011" y="-99.8" font-family="Times,serif" font-size="14.00">ReactiveFormsModule</text>
</g>
<!-- ReactiveFormsModule&#45;&gt;AppModule -->
<g id="edge18" class="edge">
<title>ReactiveFormsModule&#45;&gt;AppModule</title>
<path fill="none" stroke="black" d="M4011,-122.28C4011,-143.32 4011,-175 4011,-175 4011,-175 2499.81,-175 2499.81,-175"/>
<polygon fill="black" stroke="black" points="2499.81,-171.5 2489.81,-175 2499.81,-178.5 2499.81,-171.5"/>
</g>
<!-- NgxPaginationModule -->
<g id="node19" class="node">
<title>NgxPaginationModule</title>
<polygon fill="#8dd3c7" stroke="black" points="3920.54,-122 3917.54,-126 3896.54,-126 3893.54,-122 3777.46,-122 3777.46,-86 3920.54,-86 3920.54,-122"/>
<text text-anchor="middle" x="3849" y="-99.8" font-family="Times,serif" font-size="14.00">NgxPaginationModule</text>
</g>
<!-- NgxPaginationModule&#45;&gt;AppModule -->
<g id="edge19" class="edge">
<title>NgxPaginationModule&#45;&gt;AppModule</title>
<path fill="none" stroke="black" d="M3849,-122.13C3849,-142.57 3849,-173 3849,-173 3849,-173 2499.93,-173 2499.93,-173"/>
<polygon fill="black" stroke="black" points="2499.93,-169.5 2489.93,-173 2499.93,-176.5 2499.93,-169.5"/>
</g>
<!-- BrowserAnimationsModule -->
<g id="node20" class="node">
<title>BrowserAnimationsModule</title>
<polygon fill="#8dd3c7" stroke="black" points="3759.3,-122 3756.3,-126 3735.3,-126 3732.3,-122 3586.7,-122 3586.7,-86 3759.3,-86 3759.3,-122"/>
<text text-anchor="middle" x="3673" y="-99.8" font-family="Times,serif" font-size="14.00">BrowserAnimationsModule</text>
</g>
<!-- BrowserAnimationsModule&#45;&gt;AppModule -->
<g id="edge20" class="edge">
<title>BrowserAnimationsModule&#45;&gt;AppModule</title>
<path fill="none" stroke="black" d="M3673,-122.31C3673,-142.15 3673,-171 3673,-171 3673,-171 2499.81,-171 2499.81,-171"/>
<polygon fill="black" stroke="black" points="2499.81,-167.5 2489.81,-171 2499.81,-174.5 2499.81,-167.5"/>
</g>
<!-- MatPaginatorModule -->
<g id="node21" class="node">
<title>MatPaginatorModule</title>
<polygon fill="#8dd3c7" stroke="black" points="3568.75,-122 3565.75,-126 3544.75,-126 3541.75,-122 3433.25,-122 3433.25,-86 3568.75,-86 3568.75,-122"/>
<text text-anchor="middle" x="3501" y="-99.8" font-family="Times,serif" font-size="14.00">MatPaginatorModule</text>
</g>
<!-- MatPaginatorModule&#45;&gt;AppModule -->
<g id="edge21" class="edge">
<title>MatPaginatorModule&#45;&gt;AppModule</title>
<path fill="none" stroke="black" d="M3501,-122.17C3501,-141.09 3501,-168 3501,-168 3501,-168 2499.93,-168 2499.93,-168"/>
<polygon fill="black" stroke="black" points="2499.93,-164.5 2489.93,-168 2499.93,-171.5 2499.93,-164.5"/>
</g>
<!-- MatGridListModule -->
<g id="node22" class="node">
<title>MatGridListModule</title>
<polygon fill="#8dd3c7" stroke="black" points="3414.54,-122 3411.54,-126 3390.54,-126 3387.54,-122 3285.46,-122 3285.46,-86 3414.54,-86 3414.54,-122"/>
<text text-anchor="middle" x="3350" y="-99.8" font-family="Times,serif" font-size="14.00">MatGridListModule</text>
</g>
<!-- MatGridListModule&#45;&gt;AppModule -->
<g id="edge22" class="edge">
<title>MatGridListModule&#45;&gt;AppModule</title>
<path fill="none" stroke="black" d="M3350,-122.27C3350,-140.56 3350,-166 3350,-166 3350,-166 2499.7,-166 2499.7,-166"/>
<polygon fill="black" stroke="black" points="2499.7,-162.5 2489.7,-166 2499.7,-169.5 2499.7,-162.5"/>
</g>
<!-- MatFormFieldModule -->
<g id="node23" class="node">
<title>MatFormFieldModule</title>
<polygon fill="#8dd3c7" stroke="black" points="3267.71,-122 3264.71,-126 3243.71,-126 3240.71,-122 3126.29,-122 3126.29,-86 3267.71,-86 3267.71,-122"/>
<text text-anchor="middle" x="3197" y="-99.8" font-family="Times,serif" font-size="14.00">MatFormFieldModule</text>
</g>
<!-- MatFormFieldModule&#45;&gt;AppModule -->
<g id="edge23" class="edge">
<title>MatFormFieldModule&#45;&gt;AppModule</title>
<path fill="none" stroke="black" d="M3197,-122.02C3197,-139.37 3197,-163 3197,-163 3197,-163 2499.87,-163 2499.87,-163"/>
<polygon fill="black" stroke="black" points="2499.87,-159.5 2489.87,-163 2499.87,-166.5 2499.87,-159.5"/>
</g>
<!-- MatInputModule -->
<g id="node24" class="node">
<title>MatInputModule</title>
<polygon fill="#8dd3c7" stroke="black" points="3108.65,-122 3105.65,-126 3084.65,-126 3081.65,-122 2997.35,-122 2997.35,-86 3108.65,-86 3108.65,-122"/>
<text text-anchor="middle" x="3053" y="-99.8" font-family="Times,serif" font-size="14.00">MatInputModule</text>
</g>
<!-- MatInputModule&#45;&gt;AppModule -->
<g id="edge24" class="edge">
<title>MatInputModule&#45;&gt;AppModule</title>
<path fill="none" stroke="black" d="M3053,-122.04C3053,-138.73 3053,-161 3053,-161 3053,-161 2500.06,-161 2500.06,-161"/>
<polygon fill="black" stroke="black" points="2500.06,-157.5 2490.06,-161 2500.06,-164.5 2500.06,-157.5"/>
</g>
<!-- MatButtonModule -->
<g id="node25" class="node">
<title>MatButtonModule</title>
<polygon fill="#8dd3c7" stroke="black" points="2979.22,-122 2976.22,-126 2955.22,-126 2952.22,-122 2858.78,-122 2858.78,-86 2979.22,-86 2979.22,-122"/>
<text text-anchor="middle" x="2919" y="-99.8" font-family="Times,serif" font-size="14.00">MatButtonModule</text>
</g>
<!-- MatButtonModule&#45;&gt;AppModule -->
<g id="edge25" class="edge">
<title>MatButtonModule&#45;&gt;AppModule</title>
<path fill="none" stroke="black" d="M2919,-122.01C2919,-138.05 2919,-159 2919,-159 2919,-159 2499.8,-159 2499.8,-159"/>
<polygon fill="black" stroke="black" points="2499.8,-155.5 2489.8,-159 2499.8,-162.5 2499.8,-155.5"/>
</g>
<!-- MatTableModule -->
<g id="node26" class="node">
<title>MatTableModule</title>
<polygon fill="#8dd3c7" stroke="black" points="2840.97,-122 2837.97,-126 2816.97,-126 2813.97,-122 2727.03,-122 2727.03,-86 2840.97,-86 2840.97,-122"/>
<text text-anchor="middle" x="2784" y="-99.8" font-family="Times,serif" font-size="14.00">MatTableModule</text>
</g>
<!-- MatTableModule&#45;&gt;AppModule -->
<g id="edge26" class="edge">
<title>MatTableModule&#45;&gt;AppModule</title>
<path fill="none" stroke="black" d="M2784,-122.19C2784,-137.18 2784,-156 2784,-156 2784,-156 2499.88,-156 2499.88,-156"/>
<polygon fill="black" stroke="black" points="2499.88,-152.5 2489.88,-156 2499.88,-159.5 2499.88,-152.5"/>
</g>
<!-- MatSelectModule -->
<g id="node27" class="node">
<title>MatSelectModule</title>
<polygon fill="#8dd3c7" stroke="black" points="2709.31,-122 2706.31,-126 2685.31,-126 2682.31,-122 2592.69,-122 2592.69,-86 2709.31,-86 2709.31,-122"/>
<text text-anchor="middle" x="2651" y="-99.8" font-family="Times,serif" font-size="14.00">MatSelectModule</text>
</g>
<!-- MatSelectModule&#45;&gt;AppModule -->
<g id="edge27" class="edge">
<title>MatSelectModule&#45;&gt;AppModule</title>
<path fill="none" stroke="black" d="M2651,-122.05C2651,-136.37 2651,-154 2651,-154 2651,-154 2500.06,-154 2500.06,-154"/>
<polygon fill="black" stroke="black" points="2500.06,-150.5 2490.06,-154 2500.06,-157.5 2500.06,-150.5"/>
</g>
<!-- MatDialogModule -->
<g id="node28" class="node">
<title>MatDialogModule</title>
<polygon fill="#8dd3c7" stroke="black" points="2575.2,-122 2572.2,-126 2551.2,-126 2548.2,-122 2454.8,-122 2454.8,-86 2575.2,-86 2575.2,-122"/>
<text text-anchor="middle" x="2515" y="-99.8" font-family="Times,serif" font-size="14.00">MatDialogModule</text>
</g>
<!-- MatDialogModule&#45;&gt;AppModule -->
<g id="edge28" class="edge">
<title>MatDialogModule&#45;&gt;AppModule</title>
<path fill="none" stroke="black" d="M2472.36,-122.11C2472.36,-122.11 2472.36,-140.99 2472.36,-140.99"/>
<polygon fill="black" stroke="black" points="2468.86,-140.99 2472.36,-150.99 2475.86,-140.99 2468.86,-140.99"/>
</g>
<!-- MatCardModule -->
<g id="node29" class="node">
<title>MatCardModule</title>
<polygon fill="#8dd3c7" stroke="black" points="2436.81,-122 2433.81,-126 2412.81,-126 2409.81,-122 2327.19,-122 2327.19,-86 2436.81,-86 2436.81,-122"/>
<text text-anchor="middle" x="2382" y="-99.8" font-family="Times,serif" font-size="14.00">MatCardModule</text>
</g>
<!-- MatCardModule&#45;&gt;AppModule -->
<g id="edge29" class="edge">
<title>MatCardModule&#45;&gt;AppModule</title>
<path fill="none" stroke="black" d="M2421.41,-122.11C2421.41,-122.11 2421.41,-140.99 2421.41,-140.99"/>
<polygon fill="black" stroke="black" points="2417.91,-140.99 2421.41,-150.99 2424.91,-140.99 2417.91,-140.99"/>
</g>
<!-- { provide: HTTP_INTERCEPTORS, useClass: JwtInterceptor, multi: &#160;} -->
<g id="node31" class="node">
<title>{ provide: HTTP_INTERCEPTORS, useClass: JwtInterceptor, multi: &#160;}</title>
<ellipse fill="#fdb462" stroke="black" cx="2014" cy="-104" rx="289.13" ry="18"/>
<text text-anchor="middle" x="2014" y="-99.8" font-family="Times,serif" font-size="14.00">{ provide: HTTP_INTERCEPTORS, useClass: JwtInterceptor, multi: &#160;}</text>
</g>
<!-- { provide: HTTP_INTERCEPTORS, useClass: JwtInterceptor, multi: &#160;}&#45;&gt;AppModule -->
<g id="edge31" class="edge">
<title>{ provide: HTTP_INTERCEPTORS, useClass: JwtInterceptor, multi: &#160;}&#45;&gt;AppModule</title>
<path fill="none" stroke="black" d="M2014,-122.05C2014,-136.37 2014,-154 2014,-154 2014,-154 2395.99,-154 2395.99,-154"/>
<polygon fill="black" stroke="black" points="2395.99,-157.5 2405.99,-154 2395.99,-150.5 2395.99,-157.5"/>
</g>
</g>
</svg>
