<?xml version="1.0" encoding="UTF-8" standalone="no"?>
<!DOCTYPE svg PUBLIC "-//W3C//DTD SVG 1.1//EN"
 "http://www.w3.org/Graphics/SVG/1.1/DTD/svg11.dtd">
<!-- Generated by graphviz version 2.47.0 (20210316.0004)
 -->
<!-- Title: dependencies Pages: 1 -->
<svg width="2419pt" height="284pt"
 viewBox="0.00 0.00 2419.00 284.00" xmlns="http://www.w3.org/2000/svg" xmlns:xlink="http://www.w3.org/1999/xlink">
<g id="graph0" class="graph" transform="scale(1 1) rotate(0) translate(4 280)">
<title>dependencies</title>
<polygon fill="white" stroke="transparent" points="-4,4 -4,-280 2415,-280 2415,4 -4,4"/>
<text text-anchor="start" x="1184.51" y="-42.4" font-family="Times-12" font-weight="bold" font-size="14.00">Legend</text>
<polygon fill="#ffffb3" stroke="transparent" points="971.5,-10 971.5,-30 991.5,-30 991.5,-10 971.5,-10"/>
<text text-anchor="start" x="995.13" y="-15.4" font-family="Times-12" font-size="14.00"> &#160;Declarations</text>
<polygon fill="#8dd3c7" stroke="transparent" points="1084.5,-10 1084.5,-30 1104.5,-30 1104.5,-10 1084.5,-10"/>
<text text-anchor="start" x="1108.23" y="-15.4" font-family="Times-12" font-size="14.00"> &#160;Module</text>
<polygon fill="#80b1d3" stroke="transparent" points="1170.5,-10 1170.5,-30 1190.5,-30 1190.5,-10 1170.5,-10"/>
<text text-anchor="start" x="1194.28" y="-15.4" font-family="Times-12" font-size="14.00"> &#160;Bootstrap</text>
<polygon fill="#fdb462" stroke="transparent" points="1267.5,-10 1267.5,-30 1287.5,-30 1287.5,-10 1267.5,-10"/>
<text text-anchor="start" x="1291.17" y="-15.4" font-family="Times-12" font-size="14.00"> &#160;Providers</text>
<polygon fill="#fb8072" stroke="transparent" points="1363.5,-10 1363.5,-30 1383.5,-30 1383.5,-10 1363.5,-10"/>
<text text-anchor="start" x="1387.23" y="-15.4" font-family="Times-12" font-size="14.00"> &#160;Exports</text>
<g id="clust1" class="cluster">
<title>cluster_AppModule</title>
<polygon fill="none" stroke="black" stroke-dasharray="1,5" points="8,-70 8,-268 2403,-268 2403,-70 8,-70"/>
</g>
<g id="clust12" class="cluster">
<title>cluster_AppModule_providers</title>
<polygon fill="none" stroke="black" points="1801,-78 1801,-130 2395,-130 2395,-78 1801,-78"/>
</g>
<g id="clust2" class="cluster">
<title>cluster_AppModule_declarations</title>
<polygon fill="none" stroke="black" points="984,-78 984,-130 1793,-130 1793,-78 984,-78"/>
</g>
<g id="clust11" class="cluster">
<title>cluster_AppModule_bootstrap</title>
<polygon fill="none" stroke="black" points="929,-208 929,-260 1053,-260 1053,-208 929,-208"/>
</g>
<g id="clust9" class="cluster">
<title>cluster_AppModule_imports</title>
<polygon fill="none" stroke="black" points="16,-78 16,-130 976,-130 976,-78 16,-78"/>
</g>
<!-- AppComponent -->
<g id="node1" class="node">
<title>AppComponent</title>
<polygon fill="#ffffb3" stroke="black" points="1784.94,-122 1679.06,-122 1679.06,-86 1784.94,-86 1784.94,-122"/>
<text text-anchor="middle" x="1732" y="-99.8" font-family="Times,serif" font-size="14.00">AppComponent</text>
</g>
<!-- AppModule -->
<g id="node7" class="node">
<title>AppModule</title>
<polygon fill="#8dd3c7" stroke="black" points="1032.66,-187 1029.66,-191 1008.66,-191 1005.66,-187 949.34,-187 949.34,-151 1032.66,-151 1032.66,-187"/>
<text text-anchor="middle" x="991" y="-164.8" font-family="Times,serif" font-size="14.00">AppModule</text>
</g>
<!-- AppComponent&#45;&gt;AppModule -->
<g id="edge1" class="edge">
<title>AppComponent&#45;&gt;AppModule</title>
<path fill="none" stroke="black" d="M1732,-122.04C1732,-143.66 1732,-177 1732,-177 1732,-177 1042.69,-177 1042.69,-177"/>
<polygon fill="black" stroke="black" points="1042.69,-173.5 1032.69,-177 1042.69,-180.5 1042.69,-173.5"/>
</g>
<!-- LoginComponent -->
<g id="node2" class="node">
<title>LoginComponent</title>
<polygon fill="#ffffb3" stroke="black" points="1661.28,-122 1546.72,-122 1546.72,-86 1661.28,-86 1661.28,-122"/>
<text text-anchor="middle" x="1604" y="-99.8" font-family="Times,serif" font-size="14.00">LoginComponent</text>
</g>
<!-- LoginComponent&#45;&gt;AppModule -->
<g id="edge2" class="edge">
<title>LoginComponent&#45;&gt;AppModule</title>
<path fill="none" stroke="black" d="M1604,-122.22C1604,-142.37 1604,-172 1604,-172 1604,-172 1043.13,-172 1043.13,-172"/>
<polygon fill="black" stroke="black" points="1043.13,-168.5 1033.13,-172 1043.13,-175.5 1043.13,-168.5"/>
</g>
<!-- MapComponent -->
<g id="node3" class="node">
<title>MapComponent</title>
<polygon fill="#ffffb3" stroke="black" points="1528.49,-122 1421.51,-122 1421.51,-86 1528.49,-86 1528.49,-122"/>
<text text-anchor="middle" x="1475" y="-99.8" font-family="Times,serif" font-size="14.00">MapComponent</text>
</g>
<!-- MapComponent&#45;&gt;AppModule -->
<g id="edge3" class="edge">
<title>MapComponent&#45;&gt;AppModule</title>
<path fill="none" stroke="black" d="M1475,-122.22C1475,-140.83 1475,-167 1475,-167 1475,-167 1042.68,-167 1042.68,-167"/>
<polygon fill="black" stroke="black" points="1042.68,-163.5 1032.68,-167 1042.68,-170.5 1042.68,-163.5"/>
</g>
<!-- SiteComponent -->
<g id="node4" class="node">
<title>SiteComponent</title>
<polygon fill="#ffffb3" stroke="black" points="1403.61,-122 1300.39,-122 1300.39,-86 1403.61,-86 1403.61,-122"/>
<text text-anchor="middle" x="1352" y="-99.8" font-family="Times,serif" font-size="14.00">SiteComponent</text>
</g>
<!-- SiteComponent&#45;&gt;AppModule -->
<g id="edge4" class="edge">
<title>SiteComponent&#45;&gt;AppModule</title>
<path fill="none" stroke="black" d="M1352,-122.03C1352,-139.06 1352,-162 1352,-162 1352,-162 1042.76,-162 1042.76,-162"/>
<polygon fill="black" stroke="black" points="1042.76,-158.5 1032.76,-162 1042.76,-165.5 1042.76,-158.5"/>
</g>
<!-- NavbarComponent -->
<g id="node5" class="node">
<title>NavbarComponent</title>
<polygon fill="#ffffb3" stroke="black" points="1282.03,-122 1159.97,-122 1159.97,-86 1282.03,-86 1282.03,-122"/>
<text text-anchor="middle" x="1221" y="-99.8" font-family="Times,serif" font-size="14.00">NavbarComponent</text>
</g>
<!-- NavbarComponent&#45;&gt;AppModule -->
<g id="edge5" class="edge">
<title>NavbarComponent&#45;&gt;AppModule</title>
<path fill="none" stroke="black" d="M1221,-122.24C1221,-137.57 1221,-157 1221,-157 1221,-157 1042.92,-157 1042.92,-157"/>
<polygon fill="black" stroke="black" points="1042.92,-153.5 1032.92,-157 1042.92,-160.5 1042.92,-153.5"/>
</g>
<!-- RegistrationComponent -->
<g id="node6" class="node">
<title>RegistrationComponent</title>
<polygon fill="#ffffb3" stroke="black" points="1141.77,-122 992.23,-122 992.23,-86 1141.77,-86 1141.77,-122"/>
<text text-anchor="middle" x="1067" y="-99.8" font-family="Times,serif" font-size="14.00">RegistrationComponent</text>
</g>
<!-- RegistrationComponent&#45;&gt;AppModule -->
<g id="edge6" class="edge">
<title>RegistrationComponent&#45;&gt;AppModule</title>
<path fill="none" stroke="black" d="M1012.47,-122.11C1012.47,-122.11 1012.47,-140.99 1012.47,-140.99"/>
<polygon fill="black" stroke="black" points="1008.97,-140.99 1012.47,-150.99 1015.97,-140.99 1008.97,-140.99"/>
</g>
<!-- AppComponent  -->
<g id="node15" class="node">
<title>AppComponent </title>
<polygon fill="#80b1d3" stroke="black" points="1045.44,-252 936.56,-252 936.56,-216 1045.44,-216 1045.44,-252"/>
<text text-anchor="middle" x="991" y="-229.8" font-family="Times,serif" font-size="14.00">AppComponent </text>
</g>
<!-- AppModule&#45;&gt;AppComponent  -->
<g id="edge14" class="edge">
<title>AppModule&#45;&gt;AppComponent </title>
<path fill="none" stroke="black" stroke-dasharray="1,5" d="M991,-187.11C991,-187.11 991,-205.99 991,-205.99"/>
<polygon fill="black" stroke="black" points="987.5,-205.99 991,-215.99 994.5,-205.99 987.5,-205.99"/>
</g>
<!-- BrowserModule -->
<g id="node8" class="node">
<title>BrowserModule</title>
<polygon fill="#8dd3c7" stroke="black" points="968.47,-122 965.47,-126 944.47,-126 941.47,-122 861.53,-122 861.53,-86 968.47,-86 968.47,-122"/>
<text text-anchor="middle" x="915" y="-99.8" font-family="Times,serif" font-size="14.00">BrowserModule</text>
</g>
<!-- BrowserModule&#45;&gt;AppModule -->
<g id="edge7" class="edge">
<title>BrowserModule&#45;&gt;AppModule</title>
<path fill="none" stroke="black" d="M958.83,-122.11C958.83,-122.11 958.83,-140.99 958.83,-140.99"/>
<polygon fill="black" stroke="black" points="955.33,-140.99 958.83,-150.99 962.33,-140.99 955.33,-140.99"/>
</g>
<!-- AppRoutingModule -->
<g id="node9" class="node">
<title>AppRoutingModule</title>
<polygon fill="#8dd3c7" stroke="black" points="843.27,-122 840.27,-126 819.27,-126 816.27,-122 714.73,-122 714.73,-86 843.27,-86 843.27,-122"/>
<text text-anchor="middle" x="779" y="-99.8" font-family="Times,serif" font-size="14.00">AppRoutingModule</text>
</g>
<!-- AppRoutingModule&#45;&gt;AppModule -->
<g id="edge8" class="edge">
<title>AppRoutingModule&#45;&gt;AppModule</title>
<path fill="none" stroke="black" d="M779,-122.24C779,-137.57 779,-157 779,-157 779,-157 939.12,-157 939.12,-157"/>
<polygon fill="black" stroke="black" points="939.12,-160.5 949.12,-157 939.12,-153.5 939.12,-160.5"/>
</g>
<!-- FormsModule -->
<g id="node10" class="node">
<title>FormsModule</title>
<polygon fill="#8dd3c7" stroke="black" points="696.83,-122 693.83,-126 672.83,-126 669.83,-122 601.17,-122 601.17,-86 696.83,-86 696.83,-122"/>
<text text-anchor="middle" x="649" y="-99.8" font-family="Times,serif" font-size="14.00">FormsModule</text>
</g>
<!-- FormsModule&#45;&gt;AppModule -->
<g id="edge9" class="edge">
<title>FormsModule&#45;&gt;AppModule</title>
<path fill="none" stroke="black" d="M649,-122.03C649,-139.06 649,-162 649,-162 649,-162 939.06,-162 939.06,-162"/>
<polygon fill="black" stroke="black" points="939.06,-165.5 949.06,-162 939.06,-158.5 939.06,-165.5"/>
</g>
<!-- AdminModule -->
<g id="node11" class="node">
<title>AdminModule</title>
<polygon fill="#8dd3c7" stroke="black" points="583.44,-122 580.44,-126 559.44,-126 556.44,-122 484.56,-122 484.56,-86 583.44,-86 583.44,-122"/>
<text text-anchor="middle" x="534" y="-99.8" font-family="Times,serif" font-size="14.00">AdminModule</text>
</g>
<!-- AdminModule&#45;&gt;AppModule -->
<g id="edge10" class="edge">
<title>AdminModule&#45;&gt;AppModule</title>
<path fill="none" stroke="black" d="M534,-122.22C534,-140.83 534,-167 534,-167 534,-167 939.23,-167 939.23,-167"/>
<polygon fill="black" stroke="black" points="939.23,-170.5 949.23,-167 939.23,-163.5 939.23,-170.5"/>
</g>
<!-- HttpClientModule -->
<g id="node12" class="node">
<title>HttpClientModule</title>
<polygon fill="#8dd3c7" stroke="black" points="466.16,-122 463.16,-126 442.16,-126 439.16,-122 347.84,-122 347.84,-86 466.16,-86 466.16,-122"/>
<text text-anchor="middle" x="407" y="-99.8" font-family="Times,serif" font-size="14.00">HttpClientModule</text>
</g>
<!-- HttpClientModule&#45;&gt;AppModule -->
<g id="edge11" class="edge">
<title>HttpClientModule&#45;&gt;AppModule</title>
<path fill="none" stroke="black" d="M407,-122.22C407,-142.37 407,-172 407,-172 407,-172 939,-172 939,-172"/>
<polygon fill="black" stroke="black" points="939,-175.5 949,-172 939,-168.5 939,-175.5"/>
</g>
<!-- ReactiveFormsModule -->
<g id="node13" class="node">
<title>ReactiveFormsModule</title>
<polygon fill="#8dd3c7" stroke="black" points="330.3,-122 327.3,-126 306.3,-126 303.3,-122 185.7,-122 185.7,-86 330.3,-86 330.3,-122"/>
<text text-anchor="middle" x="258" y="-99.8" font-family="Times,serif" font-size="14.00">ReactiveFormsModule</text>
</g>
<!-- ReactiveFormsModule&#45;&gt;AppModule -->
<g id="edge12" class="edge">
<title>ReactiveFormsModule&#45;&gt;AppModule</title>
<path fill="none" stroke="black" d="M258,-122.04C258,-143.66 258,-177 258,-177 258,-177 939.22,-177 939.22,-177"/>
<polygon fill="black" stroke="black" points="939.22,-180.5 949.22,-177 939.22,-173.5 939.22,-180.5"/>
</g>
<!-- NgxPaginationModule -->
<g id="node14" class="node">
<title>NgxPaginationModule</title>
<polygon fill="#8dd3c7" stroke="black" points="167.54,-122 164.54,-126 143.54,-126 140.54,-122 24.46,-122 24.46,-86 167.54,-86 167.54,-122"/>
<text text-anchor="middle" x="96" y="-99.8" font-family="Times,serif" font-size="14.00">NgxPaginationModule</text>
</g>
<!-- NgxPaginationModule&#45;&gt;AppModule -->
<g id="edge13" class="edge">
<title>NgxPaginationModule&#45;&gt;AppModule</title>
<path fill="none" stroke="black" d="M96,-122.09C96,-145.13 96,-182 96,-182 96,-182 939.33,-182 939.33,-182"/>
<polygon fill="black" stroke="black" points="939.33,-185.5 949.33,-182 939.33,-178.5 939.33,-185.5"/>
</g>
<!-- { provide: HTTP_INTERCEPTORS, useClass: JwtInterceptor, multi: &#160;} -->
<g id="node16" class="node">
<title>{ provide: HTTP_INTERCEPTORS, useClass: JwtInterceptor, multi: &#160;}</title>
<ellipse fill="#fdb462" stroke="black" cx="2098" cy="-104" rx="289.13" ry="18"/>
<text text-anchor="middle" x="2098" y="-99.8" font-family="Times,serif" font-size="14.00">{ provide: HTTP_INTERCEPTORS, useClass: JwtInterceptor, multi: &#160;}</text>
</g>
<!-- { provide: HTTP_INTERCEPTORS, useClass: JwtInterceptor, multi: &#160;}&#45;&gt;AppModule -->
<g id="edge15" class="edge">
<title>{ provide: HTTP_INTERCEPTORS, useClass: JwtInterceptor, multi: &#160;}&#45;&gt;AppModule</title>
<path fill="none" stroke="black" d="M2098,-122.09C2098,-145.13 2098,-182 2098,-182 2098,-182 1042.71,-182 1042.71,-182"/>
<polygon fill="black" stroke="black" points="1042.71,-178.5 1032.71,-182 1042.71,-185.5 1042.71,-178.5"/>
</g>
</g>
</svg>
