<?xml version="1.0" encoding="UTF-8" standalone="no"?>
<!DOCTYPE svg PUBLIC "-//W3C//DTD SVG 1.1//EN"
 "http://www.w3.org/Graphics/SVG/1.1/DTD/svg11.dtd">
<!-- Generated by graphviz version 2.47.0 (20210316.0004)
 -->
<!-- Title: dependencies Pages: 1 -->
<svg width="919pt" height="284pt"
 viewBox="0.00 0.00 919.00 284.00" xmlns="http://www.w3.org/2000/svg" xmlns:xlink="http://www.w3.org/1999/xlink">
<g id="graph0" class="graph" transform="scale(1 1) rotate(0) translate(4 280)">
<title>dependencies</title>
<polygon fill="white" stroke="transparent" points="-4,4 -4,-280 915,-280 915,4 -4,4"/>
<text text-anchor="start" x="434.51" y="-42.4" font-family="Times-12" font-weight="bold" font-size="14.00">Legend</text>
<polygon fill="#ffffb3" stroke="transparent" points="221.5,-10 221.5,-30 241.5,-30 241.5,-10 221.5,-10"/>
<text text-anchor="start" x="245.13" y="-15.4" font-family="Times-12" font-size="14.00"> &#160;Declarations</text>
<polygon fill="#8dd3c7" stroke="transparent" points="334.5,-10 334.5,-30 354.5,-30 354.5,-10 334.5,-10"/>
<text text-anchor="start" x="358.23" y="-15.4" font-family="Times-12" font-size="14.00"> &#160;Module</text>
<polygon fill="#80b1d3" stroke="transparent" points="420.5,-10 420.5,-30 440.5,-30 440.5,-10 420.5,-10"/>
<text text-anchor="start" x="444.28" y="-15.4" font-family="Times-12" font-size="14.00"> &#160;Bootstrap</text>
<polygon fill="#fdb462" stroke="transparent" points="517.5,-10 517.5,-30 537.5,-30 537.5,-10 517.5,-10"/>
<text text-anchor="start" x="541.17" y="-15.4" font-family="Times-12" font-size="14.00"> &#160;Providers</text>
<polygon fill="#fb8072" stroke="transparent" points="613.5,-10 613.5,-30 633.5,-30 633.5,-10 613.5,-10"/>
<text text-anchor="start" x="637.23" y="-15.4" font-family="Times-12" font-size="14.00"> &#160;Exports</text>
<g id="clust1" class="cluster">
<title>cluster_PublicModule</title>
<polygon fill="none" stroke="black" stroke-dasharray="1,5" points="8,-70 8,-268 903,-268 903,-70 8,-70"/>
</g>
<g id="clust2" class="cluster">
<title>cluster_PublicModule_declarations</title>
<polygon fill="none" stroke="black" points="627,-78 627,-130 895,-130 895,-78 627,-78"/>
</g>
<g id="clust5" class="cluster">
<title>cluster_PublicModule_imports</title>
<polygon fill="none" stroke="black" points="16,-78 16,-130 619,-130 619,-78 16,-78"/>
</g>
<g id="clust6" class="cluster">
<title>cluster_PublicModule_exports</title>
<polygon fill="none" stroke="black" points="428,-208 428,-260 560,-260 560,-208 428,-208"/>
</g>
<!-- NavbarComponent -->
<g id="node1" class="node">
<title>NavbarComponent</title>
<polygon fill="#ffffb3" stroke="black" points="887.03,-122 764.97,-122 764.97,-86 887.03,-86 887.03,-122"/>
<text text-anchor="middle" x="826" y="-99.8" font-family="Times,serif" font-size="14.00">NavbarComponent</text>
</g>
<!-- PublicModule -->
<g id="node3" class="node">
<title>PublicModule</title>
<polygon fill="#8dd3c7" stroke="black" points="541.83,-187 538.83,-191 517.83,-191 514.83,-187 446.17,-187 446.17,-151 541.83,-151 541.83,-187"/>
<text text-anchor="middle" x="494" y="-164.8" font-family="Times,serif" font-size="14.00">PublicModule</text>
</g>
<!-- NavbarComponent&#45;&gt;PublicModule -->
<g id="edge1" class="edge">
<title>NavbarComponent&#45;&gt;PublicModule</title>
<path fill="none" stroke="black" d="M826,-122.28C826,-143.32 826,-175 826,-175 826,-175 551.92,-175 551.92,-175"/>
<polygon fill="black" stroke="black" points="551.92,-171.5 541.92,-175 551.92,-178.5 551.92,-171.5"/>
</g>
<!-- CarteComponent -->
<g id="node2" class="node">
<title>CarteComponent</title>
<polygon fill="#ffffb3" stroke="black" points="746.65,-122 635.35,-122 635.35,-86 746.65,-86 746.65,-122"/>
<text text-anchor="middle" x="691" y="-99.8" font-family="Times,serif" font-size="14.00">CarteComponent</text>
</g>
<!-- CarteComponent&#45;&gt;PublicModule -->
<g id="edge2" class="edge">
<title>CarteComponent&#45;&gt;PublicModule</title>
<path fill="none" stroke="black" d="M691,-122.02C691,-139.37 691,-163 691,-163 691,-163 551.69,-163 551.69,-163"/>
<polygon fill="black" stroke="black" points="551.69,-159.5 541.69,-163 551.69,-166.5 551.69,-159.5"/>
</g>
<!-- CarteComponent  -->
<g id="node8" class="node">
<title>CarteComponent </title>
<polygon fill="#fb8072" stroke="black" points="551.65,-252 436.35,-252 436.35,-216 551.65,-216 551.65,-252"/>
<text text-anchor="middle" x="494" y="-229.8" font-family="Times,serif" font-size="14.00">CarteComponent </text>
</g>
<!-- PublicModule&#45;&gt;CarteComponent  -->
<g id="edge7" class="edge">
<title>PublicModule&#45;&gt;CarteComponent </title>
<path fill="none" stroke="black" stroke-dasharray="5,2" d="M494,-187.11C494,-187.11 494,-205.99 494,-205.99"/>
<polygon fill="black" stroke="black" points="490.5,-205.99 494,-215.99 497.5,-205.99 490.5,-205.99"/>
</g>
<!-- CommonModule -->
<g id="node4" class="node">
<title>CommonModule</title>
<polygon fill="#8dd3c7" stroke="black" points="610.67,-122 607.67,-126 586.67,-126 583.67,-122 499.33,-122 499.33,-86 610.67,-86 610.67,-122"/>
<text text-anchor="middle" x="555" y="-99.8" font-family="Times,serif" font-size="14.00">CommonModule</text>
</g>
<!-- CommonModule&#45;&gt;PublicModule -->
<g id="edge3" class="edge">
<title>CommonModule&#45;&gt;PublicModule</title>
<path fill="none" stroke="black" d="M520.42,-122.11C520.42,-122.11 520.42,-140.99 520.42,-140.99"/>
<polygon fill="black" stroke="black" points="516.92,-140.99 520.42,-150.99 523.92,-140.99 516.92,-140.99"/>
</g>
<!-- FormsModule -->
<g id="node5" class="node">
<title>FormsModule</title>
<polygon fill="#8dd3c7" stroke="black" points="481.83,-122 478.83,-126 457.83,-126 454.83,-122 386.17,-122 386.17,-86 481.83,-86 481.83,-122"/>
<text text-anchor="middle" x="434" y="-99.8" font-family="Times,serif" font-size="14.00">FormsModule</text>
</g>
<!-- FormsModule&#45;&gt;PublicModule -->
<g id="edge4" class="edge">
<title>FormsModule&#45;&gt;PublicModule</title>
<path fill="none" stroke="black" d="M464,-122.11C464,-122.11 464,-140.99 464,-140.99"/>
<polygon fill="black" stroke="black" points="460.5,-140.99 464,-150.99 467.5,-140.99 460.5,-140.99"/>
</g>
<!-- ReactiveFormsModule -->
<g id="node6" class="node">
<title>ReactiveFormsModule</title>
<polygon fill="#8dd3c7" stroke="black" points="368.3,-122 365.3,-126 344.3,-126 341.3,-122 223.7,-122 223.7,-86 368.3,-86 368.3,-122"/>
<text text-anchor="middle" x="296" y="-99.8" font-family="Times,serif" font-size="14.00">ReactiveFormsModule</text>
</g>
<!-- ReactiveFormsModule&#45;&gt;PublicModule -->
<g id="edge5" class="edge">
<title>ReactiveFormsModule&#45;&gt;PublicModule</title>
<path fill="none" stroke="black" d="M296,-122.02C296,-139.37 296,-163 296,-163 296,-163 436.32,-163 436.32,-163"/>
<polygon fill="black" stroke="black" points="436.32,-166.5 446.32,-163 436.32,-159.5 436.32,-166.5"/>
</g>
<!-- RouterModule.forChild(args) -->
<g id="node7" class="node">
<title>RouterModule.forChild(args)</title>
<polygon fill="#8dd3c7" stroke="black" points="205.73,-122 202.73,-126 181.73,-126 178.73,-122 24.27,-122 24.27,-86 205.73,-86 205.73,-122"/>
<text text-anchor="middle" x="115" y="-99.8" font-family="Times,serif" font-size="14.00">RouterModule.forChild(args)</text>
</g>
<!-- RouterModule.forChild(args)&#45;&gt;PublicModule -->
<g id="edge6" class="edge">
<title>RouterModule.forChild(args)&#45;&gt;PublicModule</title>
<path fill="none" stroke="black" d="M115,-122.28C115,-143.32 115,-175 115,-175 115,-175 436,-175 436,-175"/>
<polygon fill="black" stroke="black" points="436,-178.5 446,-175 436,-171.5 436,-178.5"/>
</g>
</g>
</svg>
