<?xml version="1.0" encoding="UTF-8" standalone="no"?>
<!DOCTYPE svg PUBLIC "-//W3C//DTD SVG 1.1//EN"
 "http://www.w3.org/Graphics/SVG/1.1/DTD/svg11.dtd">
<!-- Generated by graphviz version 2.47.0 (20210316.0004)
 -->
<!-- Title: dependencies Pages: 1 -->
<svg width="3265pt" height="287pt"
 viewBox="0.00 0.00 3265.00 287.00" xmlns="http://www.w3.org/2000/svg" xmlns:xlink="http://www.w3.org/1999/xlink">
<g id="graph0" class="graph" transform="scale(1 1) rotate(0) translate(4 283)">
<title>dependencies</title>
<polygon fill="white" stroke="transparent" points="-4,4 -4,-283 3261,-283 3261,4 -4,4"/>
<text text-anchor="start" x="1607.51" y="-42.4" font-family="Times-12" font-weight="bold" font-size="14.00">Legend</text>
<polygon fill="#ffffb3" stroke="transparent" points="1394.5,-10 1394.5,-30 1414.5,-30 1414.5,-10 1394.5,-10"/>
<text text-anchor="start" x="1418.13" y="-15.4" font-family="Times-12" font-size="14.00"> &#160;Declarations</text>
<polygon fill="#8dd3c7" stroke="transparent" points="1507.5,-10 1507.5,-30 1527.5,-30 1527.5,-10 1507.5,-10"/>
<text text-anchor="start" x="1531.23" y="-15.4" font-family="Times-12" font-size="14.00"> &#160;Module</text>
<polygon fill="#80b1d3" stroke="transparent" points="1593.5,-10 1593.5,-30 1613.5,-30 1613.5,-10 1593.5,-10"/>
<text text-anchor="start" x="1617.28" y="-15.4" font-family="Times-12" font-size="14.00"> &#160;Bootstrap</text>
<polygon fill="#fdb462" stroke="transparent" points="1690.5,-10 1690.5,-30 1710.5,-30 1710.5,-10 1690.5,-10"/>
<text text-anchor="start" x="1714.17" y="-15.4" font-family="Times-12" font-size="14.00"> &#160;Providers</text>
<polygon fill="#fb8072" stroke="transparent" points="1786.5,-10 1786.5,-30 1806.5,-30 1806.5,-10 1786.5,-10"/>
<text text-anchor="start" x="1810.23" y="-15.4" font-family="Times-12" font-size="14.00"> &#160;Exports</text>
<g id="clust1" class="cluster">
<title>cluster_AdminModule</title>
<polygon fill="none" stroke="black" stroke-dasharray="1,5" points="2294,-70 2294,-263 2957,-263 2957,-70 2294,-70"/>
</g>
<g id="clust2" class="cluster">
<title>cluster_AdminModule_declarations</title>
<polygon fill="none" stroke="black" points="2314,-143 2314,-195 2614,-195 2614,-143 2314,-143"/>
</g>
<g id="clust5" class="cluster">
<title>cluster_AdminModule_imports</title>
<polygon fill="none" stroke="black" points="2622,-78 2622,-195 2949,-195 2949,-78 2622,-78"/>
</g>
<g id="clust9" class="cluster">
<title>cluster_AppModule</title>
<polygon fill="none" stroke="black" stroke-dasharray="1,5" points="8,-70 8,-271 2286,-271 2286,-70 8,-70"/>
</g>
<g id="clust10" class="cluster">
<title>cluster_AppModule_declarations</title>
<polygon fill="none" stroke="black" points="1470,-78 1470,-130 2278,-130 2278,-78 1470,-78"/>
</g>
<g id="clust17" class="cluster">
<title>cluster_AppModule_imports</title>
<polygon fill="none" stroke="black" points="618,-78 618,-130 1462,-130 1462,-78 618,-78"/>
</g>
<g id="clust19" class="cluster">
<title>cluster_AppModule_bootstrap</title>
<polygon fill="none" stroke="black" points="1406,-211 1406,-263 1530,-263 1530,-211 1406,-211"/>
</g>
<g id="clust20" class="cluster">
<title>cluster_AppModule_providers</title>
<polygon fill="none" stroke="black" points="16,-78 16,-130 610,-130 610,-78 16,-78"/>
</g>
<g id="clust21" class="cluster">
<title>cluster_PublicModule</title>
<polygon fill="none" stroke="black" stroke-dasharray="1,5" points="2965,-203 2965,-271 3249,-271 3249,-203 2965,-203"/>
</g>
<g id="clust22" class="cluster">
<title>cluster_PublicModule_declarations</title>
<polygon fill="none" stroke="black" points="3113,-211 3113,-263 3241,-263 3241,-211 3113,-211"/>
</g>
<g id="clust26" class="cluster">
<title>cluster_PublicModule_exports</title>
<polygon fill="none" stroke="black" points="2973,-211 2973,-263 3105,-263 3105,-211 2973,-211"/>
</g>
<!-- SlideBarComponent -->
<g id="node1" class="node">
<title>SlideBarComponent</title>
<polygon fill="#ffffb3" stroke="black" points="2606.32,-187 2475.68,-187 2475.68,-151 2606.32,-151 2606.32,-187"/>
<text text-anchor="middle" x="2541" y="-164.8" font-family="Times,serif" font-size="14.00">SlideBarComponent</text>
</g>
<!-- AdminModule -->
<g id="node3" class="node">
<title>AdminModule</title>
<polygon fill="#8dd3c7" stroke="black" points="2514.44,-255 2511.44,-259 2490.44,-259 2487.44,-255 2415.56,-255 2415.56,-219 2514.44,-219 2514.44,-255"/>
<text text-anchor="middle" x="2465" y="-232.8" font-family="Times,serif" font-size="14.00">AdminModule</text>
</g>
<!-- SlideBarComponent&#45;&gt;AdminModule -->
<g id="edge1" class="edge">
<title>SlideBarComponent&#45;&gt;AdminModule</title>
<path fill="none" stroke="black" d="M2495.03,-187.22C2495.03,-187.22 2495.03,-208.73 2495.03,-208.73"/>
<polygon fill="black" stroke="black" points="2491.53,-208.73 2495.03,-218.73 2498.53,-208.73 2491.53,-208.73"/>
</g>
<!-- DashbordComponent -->
<g id="node2" class="node">
<title>DashbordComponent</title>
<polygon fill="#ffffb3" stroke="black" points="2457.76,-187 2322.24,-187 2322.24,-151 2457.76,-151 2457.76,-187"/>
<text text-anchor="middle" x="2390" y="-164.8" font-family="Times,serif" font-size="14.00">DashbordComponent</text>
</g>
<!-- DashbordComponent&#45;&gt;AdminModule -->
<g id="edge2" class="edge">
<title>DashbordComponent&#45;&gt;AdminModule</title>
<path fill="none" stroke="black" d="M2436.83,-187.22C2436.83,-187.22 2436.83,-208.73 2436.83,-208.73"/>
<polygon fill="black" stroke="black" points="2433.33,-208.73 2436.83,-218.73 2440.33,-208.73 2433.33,-208.73"/>
</g>
<!-- AppModule -->
<g id="node13" class="node">
<title>AppModule</title>
<polygon fill="#8dd3c7" stroke="black" points="1509.66,-187 1506.66,-191 1485.66,-191 1482.66,-187 1426.34,-187 1426.34,-151 1509.66,-151 1509.66,-187"/>
<text text-anchor="middle" x="1468" y="-164.8" font-family="Times,serif" font-size="14.00">AppModule</text>
</g>
<!-- AdminModule&#45;&gt;AppModule -->
<g id="edge15" class="edge">
<title>AdminModule&#45;&gt;AppModule</title>
<path fill="none" stroke="black" d="M2415.72,-237C2365.89,-237 2296.19,-237 2296.19,-237 2296.19,-237 2296.19,-182 2296.19,-182 2296.19,-182 1519.92,-182 1519.92,-182"/>
<polygon fill="black" stroke="black" points="1519.92,-178.5 1509.92,-182 1519.92,-185.5 1519.92,-178.5"/>
</g>
<!-- CommonModule -->
<g id="node4" class="node">
<title>CommonModule</title>
<polygon fill="#8dd3c7" stroke="black" points="2940.67,-122 2937.67,-126 2916.67,-126 2913.67,-122 2829.33,-122 2829.33,-86 2940.67,-86 2940.67,-122"/>
<text text-anchor="middle" x="2885" y="-99.8" font-family="Times,serif" font-size="14.00">CommonModule</text>
</g>
<!-- CommonModule&#45;&gt;AdminModule -->
<g id="edge3" class="edge">
<title>CommonModule&#45;&gt;AdminModule</title>
<path fill="none" stroke="black" d="M2903.61,-122.24C2903.61,-160.99 2903.61,-248 2903.61,-248 2903.61,-248 2524.46,-248 2524.46,-248"/>
<polygon fill="black" stroke="black" points="2524.46,-244.5 2514.46,-248 2524.46,-251.5 2524.46,-244.5"/>
</g>
<!-- PublicModule -->
<g id="node5" class="node">
<title>PublicModule</title>
<polygon fill="#8dd3c7" stroke="black" points="2746.83,-187 2743.83,-191 2722.83,-191 2719.83,-187 2651.17,-187 2651.17,-151 2746.83,-151 2746.83,-187"/>
<text text-anchor="middle" x="2699" y="-164.8" font-family="Times,serif" font-size="14.00">PublicModule</text>
</g>
<!-- CommonModule&#45;&gt;PublicModule -->
<g id="edge23" class="edge">
<title>CommonModule&#45;&gt;PublicModule</title>
<path fill="none" stroke="black" d="M2866.39,-122.02C2866.39,-139.37 2866.39,-163 2866.39,-163 2866.39,-163 2756.97,-163 2756.97,-163"/>
<polygon fill="black" stroke="black" points="2756.97,-159.5 2746.97,-163 2756.97,-166.5 2756.97,-159.5"/>
</g>
<!-- PublicModule&#45;&gt;AdminModule -->
<g id="edge4" class="edge">
<title>PublicModule&#45;&gt;AdminModule</title>
<path fill="none" stroke="black" d="M2683.11,-187.17C2683.11,-208.5 2683.11,-241 2683.11,-241 2683.11,-241 2524.22,-241 2524.22,-241"/>
<polygon fill="black" stroke="black" points="2524.22,-237.5 2514.22,-241 2524.22,-244.5 2524.22,-237.5"/>
</g>
<!-- CarteComponent  -->
<g id="node23" class="node">
<title>CarteComponent </title>
<polygon fill="#fb8072" stroke="black" points="3096.65,-255 2981.35,-255 2981.35,-219 3096.65,-219 3096.65,-255"/>
<text text-anchor="middle" x="3039" y="-232.8" font-family="Times,serif" font-size="14.00">CarteComponent </text>
</g>
<!-- PublicModule&#45;&gt;CarteComponent  -->
<g id="edge27" class="edge">
<title>PublicModule&#45;&gt;CarteComponent </title>
<path fill="none" stroke="black" stroke-dasharray="5,2" d="M2714.89,-187.03C2714.89,-204.06 2714.89,-227 2714.89,-227 2714.89,-227 2971.06,-227 2971.06,-227"/>
<polygon fill="black" stroke="black" points="2971.06,-230.5 2981.06,-227 2971.06,-223.5 2971.06,-230.5"/>
</g>
<!-- RouterModule.forChild(args) -->
<g id="node6" class="node">
<title>RouterModule.forChild(args)</title>
<polygon fill="#8dd3c7" stroke="black" points="2811.73,-122 2808.73,-126 2787.73,-126 2784.73,-122 2630.27,-122 2630.27,-86 2811.73,-86 2811.73,-122"/>
<text text-anchor="middle" x="2721" y="-99.8" font-family="Times,serif" font-size="14.00">RouterModule.forChild(args)</text>
</g>
<!-- RouterModule.forChild(args)&#45;&gt;AdminModule -->
<g id="edge5" class="edge">
<title>RouterModule.forChild(args)&#45;&gt;AdminModule</title>
<path fill="none" stroke="black" d="M2640.86,-122.08C2640.86,-157.8 2640.86,-234 2640.86,-234 2640.86,-234 2524.45,-234 2524.45,-234"/>
<polygon fill="black" stroke="black" points="2524.45,-230.5 2514.45,-234 2524.45,-237.5 2524.45,-230.5"/>
</g>
<!-- RouterModule.forChild(args)&#45;&gt;PublicModule -->
<g id="edge26" class="edge">
<title>RouterModule.forChild(args)&#45;&gt;PublicModule</title>
<path fill="none" stroke="black" d="M2722.83,-122.11C2722.83,-122.11 2722.83,-140.99 2722.83,-140.99"/>
<polygon fill="black" stroke="black" points="2719.33,-140.99 2722.83,-150.99 2726.33,-140.99 2719.33,-140.99"/>
</g>
<!-- AppComponent -->
<g id="node7" class="node">
<title>AppComponent</title>
<polygon fill="#ffffb3" stroke="black" points="1840.94,-122 1735.06,-122 1735.06,-86 1840.94,-86 1840.94,-122"/>
<text text-anchor="middle" x="1788" y="-99.8" font-family="Times,serif" font-size="14.00">AppComponent</text>
</g>
<!-- AppComponent&#45;&gt;AppModule -->
<g id="edge6" class="edge">
<title>AppComponent&#45;&gt;AppModule</title>
<path fill="none" stroke="black" d="M1788,-122.03C1788,-139.06 1788,-162 1788,-162 1788,-162 1519.83,-162 1519.83,-162"/>
<polygon fill="black" stroke="black" points="1519.83,-158.5 1509.83,-162 1519.83,-165.5 1519.83,-158.5"/>
</g>
<!-- LoginComponent -->
<g id="node8" class="node">
<title>LoginComponent</title>
<polygon fill="#ffffb3" stroke="black" points="1717.28,-122 1602.72,-122 1602.72,-86 1717.28,-86 1717.28,-122"/>
<text text-anchor="middle" x="1660" y="-99.8" font-family="Times,serif" font-size="14.00">LoginComponent</text>
</g>
<!-- LoginComponent&#45;&gt;AppModule -->
<g id="edge7" class="edge">
<title>LoginComponent&#45;&gt;AppModule</title>
<path fill="none" stroke="black" d="M1660,-122.24C1660,-137.57 1660,-157 1660,-157 1660,-157 1519.66,-157 1519.66,-157"/>
<polygon fill="black" stroke="black" points="1519.66,-153.5 1509.66,-157 1519.66,-160.5 1519.66,-153.5"/>
</g>
<!-- MapComponent -->
<g id="node9" class="node">
<title>MapComponent</title>
<polygon fill="#ffffb3" stroke="black" points="1584.49,-122 1477.51,-122 1477.51,-86 1584.49,-86 1584.49,-122"/>
<text text-anchor="middle" x="1531" y="-99.8" font-family="Times,serif" font-size="14.00">MapComponent</text>
</g>
<!-- MapComponent&#45;&gt;AppModule -->
<g id="edge8" class="edge">
<title>MapComponent&#45;&gt;AppModule</title>
<path fill="none" stroke="black" d="M1493.67,-122.11C1493.67,-122.11 1493.67,-140.99 1493.67,-140.99"/>
<polygon fill="black" stroke="black" points="1490.17,-140.99 1493.67,-150.99 1497.17,-140.99 1490.17,-140.99"/>
</g>
<!-- SiteComponent -->
<g id="node10" class="node">
<title>SiteComponent</title>
<polygon fill="#ffffb3" stroke="black" points="2129.61,-122 2026.39,-122 2026.39,-86 2129.61,-86 2129.61,-122"/>
<text text-anchor="middle" x="2078" y="-99.8" font-family="Times,serif" font-size="14.00">SiteComponent</text>
</g>
<!-- SiteComponent&#45;&gt;AppModule -->
<g id="edge9" class="edge">
<title>SiteComponent&#45;&gt;AppModule</title>
<path fill="none" stroke="black" d="M2078,-122.22C2078,-142.37 2078,-172 2078,-172 2078,-172 1519.93,-172 1519.93,-172"/>
<polygon fill="black" stroke="black" points="1519.93,-168.5 1509.93,-172 1519.93,-175.5 1519.93,-168.5"/>
</g>
<!-- NavbarComponent -->
<g id="node11" class="node">
<title>NavbarComponent</title>
<polygon fill="#ffffb3" stroke="black" points="2270.03,-122 2147.97,-122 2147.97,-86 2270.03,-86 2270.03,-122"/>
<text text-anchor="middle" x="2209" y="-99.8" font-family="Times,serif" font-size="14.00">NavbarComponent</text>
</g>
<!-- NavbarComponent&#45;&gt;PublicModule -->
<g id="edge21" class="edge">
<title>NavbarComponent&#45;&gt;PublicModule</title>
<path fill="none" stroke="black" d="M2270.27,-104C2384.45,-104 2618.27,-104 2618.27,-104 2618.27,-104 2618.27,-169 2618.27,-169 2618.27,-169 2641.11,-169 2641.11,-169"/>
<polygon fill="black" stroke="black" points="2641.11,-172.5 2651.11,-169 2641.11,-165.5 2641.11,-172.5"/>
</g>
<!-- NavbarComponent&#45;&gt;AppModule -->
<g id="edge10" class="edge">
<title>NavbarComponent&#45;&gt;AppModule</title>
<path fill="none" stroke="black" d="M2209,-122.04C2209,-143.66 2209,-177 2209,-177 2209,-177 1519.69,-177 1519.69,-177"/>
<polygon fill="black" stroke="black" points="1519.69,-173.5 1509.69,-177 1519.69,-180.5 1519.69,-173.5"/>
</g>
<!-- RegistrationComponent -->
<g id="node12" class="node">
<title>RegistrationComponent</title>
<polygon fill="#ffffb3" stroke="black" points="2008.77,-122 1859.23,-122 1859.23,-86 2008.77,-86 2008.77,-122"/>
<text text-anchor="middle" x="1934" y="-99.8" font-family="Times,serif" font-size="14.00">RegistrationComponent</text>
</g>
<!-- RegistrationComponent&#45;&gt;AppModule -->
<g id="edge11" class="edge">
<title>RegistrationComponent&#45;&gt;AppModule</title>
<path fill="none" stroke="black" d="M1934,-122.22C1934,-140.83 1934,-167 1934,-167 1934,-167 1519.76,-167 1519.76,-167"/>
<polygon fill="black" stroke="black" points="1519.76,-163.5 1509.76,-167 1519.76,-170.5 1519.76,-163.5"/>
</g>
<!-- AppComponent  -->
<g id="node20" class="node">
<title>AppComponent </title>
<polygon fill="#80b1d3" stroke="black" points="1522.44,-255 1413.56,-255 1413.56,-219 1522.44,-219 1522.44,-255"/>
<text text-anchor="middle" x="1468" y="-232.8" font-family="Times,serif" font-size="14.00">AppComponent </text>
</g>
<!-- AppModule&#45;&gt;AppComponent  -->
<g id="edge19" class="edge">
<title>AppModule&#45;&gt;AppComponent </title>
<path fill="none" stroke="black" stroke-dasharray="1,5" d="M1468,-187.22C1468,-187.22 1468,-208.73 1468,-208.73"/>
<polygon fill="black" stroke="black" points="1464.5,-208.73 1468,-218.73 1471.5,-208.73 1464.5,-208.73"/>
</g>
<!-- BrowserModule -->
<g id="node14" class="node">
<title>BrowserModule</title>
<polygon fill="#8dd3c7" stroke="black" points="879.47,-122 876.47,-126 855.47,-126 852.47,-122 772.53,-122 772.53,-86 879.47,-86 879.47,-122"/>
<text text-anchor="middle" x="826" y="-99.8" font-family="Times,serif" font-size="14.00">BrowserModule</text>
</g>
<!-- BrowserModule&#45;&gt;AppModule -->
<g id="edge12" class="edge">
<title>BrowserModule&#45;&gt;AppModule</title>
<path fill="none" stroke="black" d="M826,-122.22C826,-142.37 826,-172 826,-172 826,-172 1415.88,-172 1415.88,-172"/>
<polygon fill="black" stroke="black" points="1415.88,-175.5 1425.88,-172 1415.88,-168.5 1415.88,-175.5"/>
</g>
<!-- AppRoutingModule -->
<g id="node15" class="node">
<title>AppRoutingModule</title>
<polygon fill="#8dd3c7" stroke="black" points="754.27,-122 751.27,-126 730.27,-126 727.27,-122 625.73,-122 625.73,-86 754.27,-86 754.27,-122"/>
<text text-anchor="middle" x="690" y="-99.8" font-family="Times,serif" font-size="14.00">AppRoutingModule</text>
</g>
<!-- AppRoutingModule&#45;&gt;AppModule -->
<g id="edge13" class="edge">
<title>AppRoutingModule&#45;&gt;AppModule</title>
<path fill="none" stroke="black" d="M690,-122.04C690,-143.66 690,-177 690,-177 690,-177 1416.17,-177 1416.17,-177"/>
<polygon fill="black" stroke="black" points="1416.17,-180.5 1426.17,-177 1416.17,-173.5 1416.17,-180.5"/>
</g>
<!-- FormsModule -->
<g id="node16" class="node">
<title>FormsModule</title>
<polygon fill="#8dd3c7" stroke="black" points="1453.83,-122 1450.83,-126 1429.83,-126 1426.83,-122 1358.17,-122 1358.17,-86 1453.83,-86 1453.83,-122"/>
<text text-anchor="middle" x="1406" y="-99.8" font-family="Times,serif" font-size="14.00">FormsModule</text>
</g>
<!-- FormsModule&#45;&gt;PublicModule -->
<g id="edge24" class="edge">
<title>FormsModule&#45;&gt;PublicModule</title>
<path fill="none" stroke="black" d="M1444.5,-122.21C1444.5,-127.55 1444.5,-132 1444.5,-132 1444.5,-132 2699,-132 2699,-132 2699,-132 2699,-140.93 2699,-140.93"/>
<polygon fill="black" stroke="black" points="2695.5,-140.93 2699,-150.93 2702.5,-140.93 2695.5,-140.93"/>
</g>
<!-- FormsModule&#45;&gt;AppModule -->
<g id="edge14" class="edge">
<title>FormsModule&#45;&gt;AppModule</title>
<path fill="none" stroke="black" d="M1435.34,-122.11C1435.34,-122.11 1435.34,-140.99 1435.34,-140.99"/>
<polygon fill="black" stroke="black" points="1431.84,-140.99 1435.34,-150.99 1438.84,-140.99 1431.84,-140.99"/>
</g>
<!-- HttpClientModule -->
<g id="node17" class="node">
<title>HttpClientModule</title>
<polygon fill="#8dd3c7" stroke="black" points="1016.16,-122 1013.16,-126 992.16,-126 989.16,-122 897.84,-122 897.84,-86 1016.16,-86 1016.16,-122"/>
<text text-anchor="middle" x="957" y="-99.8" font-family="Times,serif" font-size="14.00">HttpClientModule</text>
</g>
<!-- HttpClientModule&#45;&gt;AppModule -->
<g id="edge16" class="edge">
<title>HttpClientModule&#45;&gt;AppModule</title>
<path fill="none" stroke="black" d="M957,-122.22C957,-140.83 957,-167 957,-167 957,-167 1416.18,-167 1416.18,-167"/>
<polygon fill="black" stroke="black" points="1416.18,-170.5 1426.18,-167 1416.18,-163.5 1416.18,-170.5"/>
</g>
<!-- ReactiveFormsModule -->
<g id="node18" class="node">
<title>ReactiveFormsModule</title>
<polygon fill="#8dd3c7" stroke="black" points="1340.3,-122 1337.3,-126 1316.3,-126 1313.3,-122 1195.7,-122 1195.7,-86 1340.3,-86 1340.3,-122"/>
<text text-anchor="middle" x="1268" y="-99.8" font-family="Times,serif" font-size="14.00">ReactiveFormsModule</text>
</g>
<!-- ReactiveFormsModule&#45;&gt;PublicModule -->
<g id="edge25" class="edge">
<title>ReactiveFormsModule&#45;&gt;PublicModule</title>
<path fill="none" stroke="black" d="M1243.95,-122.11C1243.95,-131.9 1243.95,-142 1243.95,-142 1243.95,-142 2675.17,-142 2675.17,-142 2675.17,-142 2675.17,-142.88 2675.17,-142.88"/>
<polygon fill="black" stroke="black" points="2671.67,-140.84 2675.17,-150.84 2678.67,-140.84 2671.67,-140.84"/>
</g>
<!-- ReactiveFormsModule&#45;&gt;AppModule -->
<g id="edge17" class="edge">
<title>ReactiveFormsModule&#45;&gt;AppModule</title>
<path fill="none" stroke="black" d="M1292.05,-122.24C1292.05,-137.57 1292.05,-157 1292.05,-157 1292.05,-157 1416.3,-157 1416.3,-157"/>
<polygon fill="black" stroke="black" points="1416.3,-160.5 1426.3,-157 1416.3,-153.5 1416.3,-160.5"/>
</g>
<!-- NgxPaginationModule -->
<g id="node19" class="node">
<title>NgxPaginationModule</title>
<polygon fill="#8dd3c7" stroke="black" points="1177.54,-122 1174.54,-126 1153.54,-126 1150.54,-122 1034.46,-122 1034.46,-86 1177.54,-86 1177.54,-122"/>
<text text-anchor="middle" x="1106" y="-99.8" font-family="Times,serif" font-size="14.00">NgxPaginationModule</text>
</g>
<!-- NgxPaginationModule&#45;&gt;AppModule -->
<g id="edge18" class="edge">
<title>NgxPaginationModule&#45;&gt;AppModule</title>
<path fill="none" stroke="black" d="M1106,-122.03C1106,-139.06 1106,-162 1106,-162 1106,-162 1416.12,-162 1416.12,-162"/>
<polygon fill="black" stroke="black" points="1416.12,-165.5 1426.12,-162 1416.12,-158.5 1416.12,-165.5"/>
</g>
<!-- { provide: HTTP_INTERCEPTORS, useClass: JwtInterceptor, multi: &#160;} -->
<g id="node21" class="node">
<title>{ provide: HTTP_INTERCEPTORS, useClass: JwtInterceptor, multi: &#160;}</title>
<ellipse fill="#fdb462" stroke="black" cx="313" cy="-104" rx="289.13" ry="18"/>
<text text-anchor="middle" x="313" y="-99.8" font-family="Times,serif" font-size="14.00">{ provide: HTTP_INTERCEPTORS, useClass: JwtInterceptor, multi: &#160;}</text>
</g>
<!-- { provide: HTTP_INTERCEPTORS, useClass: JwtInterceptor, multi: &#160;}&#45;&gt;AppModule -->
<g id="edge20" class="edge">
<title>{ provide: HTTP_INTERCEPTORS, useClass: JwtInterceptor, multi: &#160;}&#45;&gt;AppModule</title>
<path fill="none" stroke="black" d="M313,-122.09C313,-145.13 313,-182 313,-182 313,-182 1416.21,-182 1416.21,-182"/>
<polygon fill="black" stroke="black" points="1416.21,-185.5 1426.21,-182 1416.21,-178.5 1416.21,-185.5"/>
</g>
<!-- CarteComponent -->
<g id="node22" class="node">
<title>CarteComponent</title>
<polygon fill="#ffffb3" stroke="black" points="3232.65,-255 3121.35,-255 3121.35,-219 3232.65,-219 3232.65,-255"/>
<text text-anchor="middle" x="3177" y="-232.8" font-family="Times,serif" font-size="14.00">CarteComponent</text>
</g>
<!-- CarteComponent&#45;&gt;PublicModule -->
<g id="edge22" class="edge">
<title>CarteComponent&#45;&gt;PublicModule</title>
<path fill="none" stroke="black" d="M3177,-218.73C3177,-200.44 3177,-175 3177,-175 3177,-175 2757.02,-175 2757.02,-175"/>
<polygon fill="black" stroke="black" points="2757.02,-171.5 2747.02,-175 2757.02,-178.5 2757.02,-171.5"/>
</g>
</g>
</svg>
