<?xml version="1.0" encoding="UTF-8" standalone="no"?>
<!DOCTYPE svg PUBLIC "-//W3C//DTD SVG 1.1//EN"
 "http://www.w3.org/Graphics/SVG/1.1/DTD/svg11.dtd">
<!-- Generated by graphviz version 2.47.0 (20210316.0004)
 -->
<!-- Title: dependencies Pages: 1 -->
<svg width="1159pt" height="284pt"
 viewBox="0.00 0.00 1159.00 284.00" xmlns="http://www.w3.org/2000/svg" xmlns:xlink="http://www.w3.org/1999/xlink">
<g id="graph0" class="graph" transform="scale(1 1) rotate(0) translate(4 280)">
<title>dependencies</title>
<polygon fill="white" stroke="transparent" points="-4,4 -4,-280 1155,-280 1155,4 -4,4"/>
<text text-anchor="start" x="554.51" y="-42.4" font-family="Times-12" font-weight="bold" font-size="14.00">Legend</text>
<polygon fill="#ffffb3" stroke="transparent" points="341.5,-10 341.5,-30 361.5,-30 361.5,-10 341.5,-10"/>
<text text-anchor="start" x="365.13" y="-15.4" font-family="Times-12" font-size="14.00"> &#160;Declarations</text>
<polygon fill="#8dd3c7" stroke="transparent" points="454.5,-10 454.5,-30 474.5,-30 474.5,-10 454.5,-10"/>
<text text-anchor="start" x="478.23" y="-15.4" font-family="Times-12" font-size="14.00"> &#160;Module</text>
<polygon fill="#80b1d3" stroke="transparent" points="540.5,-10 540.5,-30 560.5,-30 560.5,-10 540.5,-10"/>
<text text-anchor="start" x="564.28" y="-15.4" font-family="Times-12" font-size="14.00"> &#160;Bootstrap</text>
<polygon fill="#fdb462" stroke="transparent" points="637.5,-10 637.5,-30 657.5,-30 657.5,-10 637.5,-10"/>
<text text-anchor="start" x="661.17" y="-15.4" font-family="Times-12" font-size="14.00"> &#160;Providers</text>
<polygon fill="#fb8072" stroke="transparent" points="733.5,-10 733.5,-30 753.5,-30 753.5,-10 733.5,-10"/>
<text text-anchor="start" x="757.23" y="-15.4" font-family="Times-12" font-size="14.00"> &#160;Exports</text>
<g id="clust1" class="cluster">
<title>cluster_AppModule</title>
<polygon fill="none" stroke="black" stroke-dasharray="1,5" points="8,-70 8,-268 1143,-268 1143,-70 8,-70"/>
</g>
<g id="clust2" class="cluster">
<title>cluster_AppModule_declarations</title>
<polygon fill="none" stroke="black" points="326,-78 326,-130 1135,-130 1135,-78 326,-78"/>
</g>
<g id="clust9" class="cluster">
<title>cluster_AppModule_imports</title>
<polygon fill="none" stroke="black" points="174,-78 174,-130 318,-130 318,-78 174,-78"/>
</g>
<g id="clust11" class="cluster">
<title>cluster_AppModule_bootstrap</title>
<polygon fill="none" stroke="black" points="545,-208 545,-260 669,-260 669,-208 545,-208"/>
</g>
<g id="clust12" class="cluster">
<title>cluster_AppModule_providers</title>
<polygon fill="none" stroke="black" points="16,-78 16,-130 166,-130 166,-78 16,-78"/>
</g>
<!-- AppComponent -->
<g id="node1" class="node">
<title>AppComponent</title>
<polygon fill="#ffffb3" stroke="black" points="1126.94,-122 1021.06,-122 1021.06,-86 1126.94,-86 1126.94,-122"/>
<text text-anchor="middle" x="1074" y="-99.8" font-family="Times,serif" font-size="14.00">AppComponent</text>
</g>
<!-- AppModule -->
<g id="node7" class="node">
<title>AppModule</title>
<polygon fill="#8dd3c7" stroke="black" points="648.66,-187 645.66,-191 624.66,-191 621.66,-187 565.34,-187 565.34,-151 648.66,-151 648.66,-187"/>
<text text-anchor="middle" x="607" y="-164.8" font-family="Times,serif" font-size="14.00">AppModule</text>
</g>
<!-- AppComponent&#45;&gt;AppModule -->
<g id="edge1" class="edge">
<title>AppComponent&#45;&gt;AppModule</title>
<path fill="none" stroke="black" d="M1074,-122.29C1074,-144.21 1074,-178 1074,-178 1074,-178 658.85,-178 658.85,-178"/>
<polygon fill="black" stroke="black" points="658.85,-174.5 648.85,-178 658.85,-181.5 658.85,-174.5"/>
</g>
<!-- LoginComponent -->
<g id="node2" class="node">
<title>LoginComponent</title>
<polygon fill="#ffffb3" stroke="black" points="1003.28,-122 888.72,-122 888.72,-86 1003.28,-86 1003.28,-122"/>
<text text-anchor="middle" x="946" y="-99.8" font-family="Times,serif" font-size="14.00">LoginComponent</text>
</g>
<!-- LoginComponent&#45;&gt;AppModule -->
<g id="edge2" class="edge">
<title>LoginComponent&#45;&gt;AppModule</title>
<path fill="none" stroke="black" d="M946,-122.11C946,-141.34 946,-169 946,-169 946,-169 658.91,-169 658.91,-169"/>
<polygon fill="black" stroke="black" points="658.91,-165.5 648.91,-169 658.91,-172.5 658.91,-165.5"/>
</g>
<!-- MapComponent -->
<g id="node3" class="node">
<title>MapComponent</title>
<polygon fill="#ffffb3" stroke="black" points="870.49,-122 763.51,-122 763.51,-86 870.49,-86 870.49,-122"/>
<text text-anchor="middle" x="817" y="-99.8" font-family="Times,serif" font-size="14.00">MapComponent</text>
</g>
<!-- MapComponent&#45;&gt;AppModule -->
<g id="edge3" class="edge">
<title>MapComponent&#45;&gt;AppModule</title>
<path fill="none" stroke="black" d="M817,-122.03C817,-138.4 817,-160 817,-160 817,-160 658.74,-160 658.74,-160"/>
<polygon fill="black" stroke="black" points="658.74,-156.5 648.74,-160 658.74,-163.5 658.74,-156.5"/>
</g>
<!-- NavbarComponent -->
<g id="node4" class="node">
<title>NavbarComponent</title>
<polygon fill="#ffffb3" stroke="black" points="745.03,-122 622.97,-122 622.97,-86 745.03,-86 745.03,-122"/>
<text text-anchor="middle" x="684" y="-99.8" font-family="Times,serif" font-size="14.00">NavbarComponent</text>
</g>
<!-- NavbarComponent&#45;&gt;AppModule -->
<g id="edge4" class="edge">
<title>NavbarComponent&#45;&gt;AppModule</title>
<path fill="none" stroke="black" d="M635.78,-122.11C635.78,-122.11 635.78,-140.99 635.78,-140.99"/>
<polygon fill="black" stroke="black" points="632.28,-140.99 635.78,-150.99 639.28,-140.99 632.28,-140.99"/>
</g>
<!-- RegistrationComponent -->
<g id="node5" class="node">
<title>RegistrationComponent</title>
<polygon fill="#ffffb3" stroke="black" points="604.77,-122 455.23,-122 455.23,-86 604.77,-86 604.77,-122"/>
<text text-anchor="middle" x="530" y="-99.8" font-family="Times,serif" font-size="14.00">RegistrationComponent</text>
</g>
<!-- RegistrationComponent&#45;&gt;AppModule -->
<g id="edge5" class="edge">
<title>RegistrationComponent&#45;&gt;AppModule</title>
<path fill="none" stroke="black" d="M585.03,-122.11C585.03,-122.11 585.03,-140.99 585.03,-140.99"/>
<polygon fill="black" stroke="black" points="581.53,-140.99 585.03,-150.99 588.53,-140.99 581.53,-140.99"/>
</g>
<!-- SiteComponent -->
<g id="node6" class="node">
<title>SiteComponent</title>
<polygon fill="#ffffb3" stroke="black" points="437.61,-122 334.39,-122 334.39,-86 437.61,-86 437.61,-122"/>
<text text-anchor="middle" x="386" y="-99.8" font-family="Times,serif" font-size="14.00">SiteComponent</text>
</g>
<!-- SiteComponent&#45;&gt;AppModule -->
<g id="edge6" class="edge">
<title>SiteComponent&#45;&gt;AppModule</title>
<path fill="none" stroke="black" d="M386,-122.03C386,-138.4 386,-160 386,-160 386,-160 555.17,-160 555.17,-160"/>
<polygon fill="black" stroke="black" points="555.17,-163.5 565.17,-160 555.17,-156.5 555.17,-163.5"/>
</g>
<!-- AppComponent  -->
<g id="node9" class="node">
<title>AppComponent </title>
<polygon fill="#80b1d3" stroke="black" points="661.44,-252 552.56,-252 552.56,-216 661.44,-216 661.44,-252"/>
<text text-anchor="middle" x="607" y="-229.8" font-family="Times,serif" font-size="14.00">AppComponent </text>
</g>
<!-- AppModule&#45;&gt;AppComponent  -->
<g id="edge8" class="edge">
<title>AppModule&#45;&gt;AppComponent </title>
<path fill="none" stroke="black" stroke-dasharray="1,5" d="M607,-187.11C607,-187.11 607,-205.99 607,-205.99"/>
<polygon fill="black" stroke="black" points="603.5,-205.99 607,-215.99 610.5,-205.99 603.5,-205.99"/>
</g>
<!-- AppRoutingModule -->
<g id="node8" class="node">
<title>AppRoutingModule</title>
<polygon fill="#8dd3c7" stroke="black" points="310.27,-122 307.27,-126 286.27,-126 283.27,-122 181.73,-122 181.73,-86 310.27,-86 310.27,-122"/>
<text text-anchor="middle" x="246" y="-99.8" font-family="Times,serif" font-size="14.00">AppRoutingModule</text>
</g>
<!-- AppRoutingModule&#45;&gt;AppModule -->
<g id="edge7" class="edge">
<title>AppRoutingModule&#45;&gt;AppModule</title>
<path fill="none" stroke="black" d="M246,-122.11C246,-141.34 246,-169 246,-169 246,-169 555.24,-169 555.24,-169"/>
<polygon fill="black" stroke="black" points="555.24,-172.5 565.24,-169 555.24,-165.5 555.24,-172.5"/>
</g>
<!-- JwtInterceptor -->
<g id="node10" class="node">
<title>JwtInterceptor</title>
<ellipse fill="#fdb462" stroke="black" cx="91" cy="-104" rx="66.61" ry="18"/>
<text text-anchor="middle" x="91" y="-99.8" font-family="Times,serif" font-size="14.00">JwtInterceptor</text>
</g>
<!-- JwtInterceptor&#45;&gt;AppModule -->
<g id="edge9" class="edge">
<title>JwtInterceptor&#45;&gt;AppModule</title>
<path fill="none" stroke="black" d="M91,-122.29C91,-144.21 91,-178 91,-178 91,-178 555.21,-178 555.21,-178"/>
<polygon fill="black" stroke="black" points="555.21,-181.5 565.21,-178 555.21,-174.5 555.21,-181.5"/>
</g>
</g>
</svg>
