<?xml version="1.0" encoding="UTF-8" standalone="no"?>
<!DOCTYPE svg PUBLIC "-//W3C//DTD SVG 1.1//EN"
 "http://www.w3.org/Graphics/SVG/1.1/DTD/svg11.dtd">
<!-- Generated by graphviz version 2.47.0 (20210316.0004)
 -->
<!-- Title: dependencies Pages: 1 -->
<svg width="3251pt" height="287pt"
 viewBox="0.00 0.00 3251.00 287.00" xmlns="http://www.w3.org/2000/svg" xmlns:xlink="http://www.w3.org/1999/xlink">
<g id="graph0" class="graph" transform="scale(1 1) rotate(0) translate(4 283)">
<title>dependencies</title>
<polygon fill="white" stroke="transparent" points="-4,4 -4,-283 3247,-283 3247,4 -4,4"/>
<text text-anchor="start" x="1600.51" y="-42.4" font-family="Times-12" font-weight="bold" font-size="14.00">Legend</text>
<polygon fill="#ffffb3" stroke="transparent" points="1387.5,-10 1387.5,-30 1407.5,-30 1407.5,-10 1387.5,-10"/>
<text text-anchor="start" x="1411.13" y="-15.4" font-family="Times-12" font-size="14.00"> &#160;Declarations</text>
<polygon fill="#8dd3c7" stroke="transparent" points="1500.5,-10 1500.5,-30 1520.5,-30 1520.5,-10 1500.5,-10"/>
<text text-anchor="start" x="1524.23" y="-15.4" font-family="Times-12" font-size="14.00"> &#160;Module</text>
<polygon fill="#80b1d3" stroke="transparent" points="1586.5,-10 1586.5,-30 1606.5,-30 1606.5,-10 1586.5,-10"/>
<text text-anchor="start" x="1610.28" y="-15.4" font-family="Times-12" font-size="14.00"> &#160;Bootstrap</text>
<polygon fill="#fdb462" stroke="transparent" points="1683.5,-10 1683.5,-30 1703.5,-30 1703.5,-10 1683.5,-10"/>
<text text-anchor="start" x="1707.17" y="-15.4" font-family="Times-12" font-size="14.00"> &#160;Providers</text>
<polygon fill="#fb8072" stroke="transparent" points="1779.5,-10 1779.5,-30 1799.5,-30 1799.5,-10 1779.5,-10"/>
<text text-anchor="start" x="1803.23" y="-15.4" font-family="Times-12" font-size="14.00"> &#160;Exports</text>
<g id="clust1" class="cluster">
<title>cluster_AdminModule</title>
<polygon fill="none" stroke="black" stroke-dasharray="1,5" points="300,-70 300,-263 1226,-263 1226,-70 300,-70"/>
</g>
<g id="clust2" class="cluster">
<title>cluster_AdminModule_declarations</title>
<polygon fill="none" stroke="black" points="918,-143 918,-195 1218,-195 1218,-143 918,-143"/>
</g>
<g id="clust5" class="cluster">
<title>cluster_AdminModule_imports</title>
<polygon fill="none" stroke="black" points="308,-78 308,-195 910,-195 910,-78 308,-78"/>
</g>
<g id="clust9" class="cluster">
<title>cluster_AppModule</title>
<polygon fill="none" stroke="black" stroke-dasharray="1,5" points="1234,-70 1234,-271 3235,-271 3235,-70 1234,-70"/>
</g>
<g id="clust10" class="cluster">
<title>cluster_AppModule_declarations</title>
<polygon fill="none" stroke="black" points="1242,-78 1242,-130 2050,-130 2050,-78 1242,-78"/>
</g>
<g id="clust17" class="cluster">
<title>cluster_AppModule_imports</title>
<polygon fill="none" stroke="black" points="2660,-78 2660,-130 3227,-130 3227,-78 2660,-78"/>
</g>
<g id="clust19" class="cluster">
<title>cluster_AppModule_bootstrap</title>
<polygon fill="none" stroke="black" points="1732,-211 1732,-263 1856,-263 1856,-211 1732,-211"/>
</g>
<g id="clust20" class="cluster">
<title>cluster_AppModule_providers</title>
<polygon fill="none" stroke="black" points="2058,-78 2058,-130 2652,-130 2652,-78 2058,-78"/>
</g>
<g id="clust21" class="cluster">
<title>cluster_PublicModule</title>
<polygon fill="none" stroke="black" stroke-dasharray="1,5" points="8,-203 8,-271 292,-271 292,-203 8,-203"/>
</g>
<g id="clust22" class="cluster">
<title>cluster_PublicModule_declarations</title>
<polygon fill="none" stroke="black" points="156,-211 156,-263 284,-263 284,-211 156,-211"/>
</g>
<g id="clust26" class="cluster">
<title>cluster_PublicModule_exports</title>
<polygon fill="none" stroke="black" points="16,-211 16,-263 148,-263 148,-211 16,-211"/>
</g>
<!-- SlideBarComponent -->
<g id="node1" class="node">
<title>SlideBarComponent</title>
<polygon fill="#ffffb3" stroke="black" points="1210.32,-187 1079.68,-187 1079.68,-151 1210.32,-151 1210.32,-187"/>
<text text-anchor="middle" x="1145" y="-164.8" font-family="Times,serif" font-size="14.00">SlideBarComponent</text>
</g>
<!-- AdminModule -->
<g id="node3" class="node">
<title>AdminModule</title>
<polygon fill="#8dd3c7" stroke="black" points="750.44,-255 747.44,-259 726.44,-259 723.44,-255 651.56,-255 651.56,-219 750.44,-219 750.44,-255"/>
<text text-anchor="middle" x="701" y="-232.8" font-family="Times,serif" font-size="14.00">AdminModule</text>
</g>
<!-- SlideBarComponent&#45;&gt;AdminModule -->
<g id="edge1" class="edge">
<title>SlideBarComponent&#45;&gt;AdminModule</title>
<path fill="none" stroke="black" d="M1145,-187.17C1145,-208.5 1145,-241 1145,-241 1145,-241 760.64,-241 760.64,-241"/>
<polygon fill="black" stroke="black" points="760.64,-237.5 750.64,-241 760.64,-244.5 760.64,-237.5"/>
</g>
<!-- DashbordComponent -->
<g id="node2" class="node">
<title>DashbordComponent</title>
<polygon fill="#ffffb3" stroke="black" points="1061.76,-187 926.24,-187 926.24,-151 1061.76,-151 1061.76,-187"/>
<text text-anchor="middle" x="994" y="-164.8" font-family="Times,serif" font-size="14.00">DashbordComponent</text>
</g>
<!-- DashbordComponent&#45;&gt;AdminModule -->
<g id="edge2" class="edge">
<title>DashbordComponent&#45;&gt;AdminModule</title>
<path fill="none" stroke="black" d="M994,-187.11C994,-206.34 994,-234 994,-234 994,-234 760.37,-234 760.37,-234"/>
<polygon fill="black" stroke="black" points="760.37,-230.5 750.37,-234 760.37,-237.5 760.37,-230.5"/>
</g>
<!-- AppModule -->
<g id="node15" class="node">
<title>AppModule</title>
<polygon fill="#8dd3c7" stroke="black" points="1835.66,-187 1832.66,-191 1811.66,-191 1808.66,-187 1752.34,-187 1752.34,-151 1835.66,-151 1835.66,-187"/>
<text text-anchor="middle" x="1794" y="-164.8" font-family="Times,serif" font-size="14.00">AppModule</text>
</g>
<!-- AdminModule&#45;&gt;AppModule -->
<g id="edge17" class="edge">
<title>AdminModule&#45;&gt;AppModule</title>
<path fill="none" stroke="black" d="M750.61,-248C881,-248 1223.35,-248 1223.35,-248 1223.35,-248 1223.35,-181 1223.35,-181 1223.35,-181 1742.04,-181 1742.04,-181"/>
<polygon fill="black" stroke="black" points="1742.04,-184.5 1752.04,-181 1742.04,-177.5 1742.04,-184.5"/>
</g>
<!-- CommonModule -->
<g id="node4" class="node">
<title>CommonModule</title>
<polygon fill="#8dd3c7" stroke="black" points="626.67,-122 623.67,-126 602.67,-126 599.67,-122 515.33,-122 515.33,-86 626.67,-86 626.67,-122"/>
<text text-anchor="middle" x="571" y="-99.8" font-family="Times,serif" font-size="14.00">CommonModule</text>
</g>
<!-- CommonModule&#45;&gt;AdminModule -->
<g id="edge3" class="edge">
<title>CommonModule&#45;&gt;AdminModule</title>
<path fill="none" stroke="black" d="M552.39,-122.2C552.39,-157.31 552.39,-231 552.39,-231 552.39,-231 641.51,-231 641.51,-231"/>
<polygon fill="black" stroke="black" points="641.51,-234.5 651.51,-231 641.51,-227.5 641.51,-234.5"/>
</g>
<!-- PublicModule -->
<g id="node5" class="node">
<title>PublicModule</title>
<polygon fill="#8dd3c7" stroke="black" points="782.83,-187 779.83,-191 758.83,-191 755.83,-187 687.17,-187 687.17,-151 782.83,-151 782.83,-187"/>
<text text-anchor="middle" x="735" y="-164.8" font-family="Times,serif" font-size="14.00">PublicModule</text>
</g>
<!-- CommonModule&#45;&gt;PublicModule -->
<g id="edge25" class="edge">
<title>CommonModule&#45;&gt;PublicModule</title>
<path fill="none" stroke="black" d="M589.61,-122.01C589.61,-138.05 589.61,-159 589.61,-159 589.61,-159 676.99,-159 676.99,-159"/>
<polygon fill="black" stroke="black" points="676.99,-162.5 686.99,-159 676.99,-155.5 676.99,-162.5"/>
</g>
<!-- PublicModule&#45;&gt;AdminModule -->
<g id="edge4" class="edge">
<title>PublicModule&#45;&gt;AdminModule</title>
<path fill="none" stroke="black" d="M718.78,-187.22C718.78,-187.22 718.78,-208.73 718.78,-208.73"/>
<polygon fill="black" stroke="black" points="715.28,-208.73 718.78,-218.73 722.28,-208.73 715.28,-208.73"/>
</g>
<!-- CarteComponent  -->
<g id="node23" class="node">
<title>CarteComponent </title>
<polygon fill="#fb8072" stroke="black" points="139.65,-255 24.35,-255 24.35,-219 139.65,-219 139.65,-255"/>
<text text-anchor="middle" x="82" y="-232.8" font-family="Times,serif" font-size="14.00">CarteComponent </text>
</g>
<!-- PublicModule&#45;&gt;CarteComponent  -->
<g id="edge29" class="edge">
<title>PublicModule&#45;&gt;CarteComponent </title>
<path fill="none" stroke="black" stroke-dasharray="5,2" d="M687.25,-173C536.71,-173 82,-173 82,-173 82,-173 82,-208.83 82,-208.83"/>
<polygon fill="black" stroke="black" points="78.5,-208.83 82,-218.83 85.5,-208.83 78.5,-208.83"/>
</g>
<!-- RouterModule.forChild(args) -->
<g id="node6" class="node">
<title>RouterModule.forChild(args)</title>
<polygon fill="#8dd3c7" stroke="black" points="497.73,-122 494.73,-126 473.73,-126 470.73,-122 316.27,-122 316.27,-86 497.73,-86 497.73,-122"/>
<text text-anchor="middle" x="407" y="-99.8" font-family="Times,serif" font-size="14.00">RouterModule.forChild(args)</text>
</g>
<!-- RouterModule.forChild(args)&#45;&gt;AdminModule -->
<g id="edge5" class="edge">
<title>RouterModule.forChild(args)&#45;&gt;AdminModule</title>
<path fill="none" stroke="black" d="M376.79,-122.17C376.79,-159.85 376.79,-243 376.79,-243 376.79,-243 641.76,-243 641.76,-243"/>
<polygon fill="black" stroke="black" points="641.76,-246.5 651.76,-243 641.76,-239.5 641.76,-246.5"/>
</g>
<!-- RouterModule.forChild(args)&#45;&gt;PublicModule -->
<g id="edge28" class="edge">
<title>RouterModule.forChild(args)&#45;&gt;PublicModule</title>
<path fill="none" stroke="black" d="M437.21,-122.27C437.21,-140.56 437.21,-166 437.21,-166 437.21,-166 677.15,-166 677.15,-166"/>
<polygon fill="black" stroke="black" points="677.15,-169.5 687.15,-166 677.15,-162.5 677.15,-169.5"/>
</g>
<!-- FormsModule -->
<g id="node7" class="node">
<title>FormsModule</title>
<polygon fill="#8dd3c7" stroke="black" points="739.83,-122 736.83,-126 715.83,-126 712.83,-122 644.17,-122 644.17,-86 739.83,-86 739.83,-122"/>
<text text-anchor="middle" x="692" y="-99.8" font-family="Times,serif" font-size="14.00">FormsModule</text>
</g>
<!-- FormsModule&#45;&gt;AdminModule -->
<g id="edge6" class="edge">
<title>FormsModule&#45;&gt;AdminModule</title>
<path fill="none" stroke="black" d="M669.56,-122.21C669.56,-122.21 669.56,-208.58 669.56,-208.58"/>
<polygon fill="black" stroke="black" points="666.06,-208.58 669.56,-218.58 673.06,-208.58 666.06,-208.58"/>
</g>
<!-- FormsModule&#45;&gt;PublicModule -->
<g id="edge26" class="edge">
<title>FormsModule&#45;&gt;PublicModule</title>
<path fill="none" stroke="black" d="M704.78,-122.11C704.78,-122.11 704.78,-140.99 704.78,-140.99"/>
<polygon fill="black" stroke="black" points="701.28,-140.99 704.78,-150.99 708.28,-140.99 701.28,-140.99"/>
</g>
<!-- FormsModule&#45;&gt;AppModule -->
<g id="edge16" class="edge">
<title>FormsModule&#45;&gt;AppModule</title>
<path fill="none" stroke="black" d="M722.22,-122.04C722.22,-129.75 722.22,-137 722.22,-137 722.22,-137 1767.08,-137 1767.08,-137 1767.08,-137 1767.08,-140.76 1767.08,-140.76"/>
<polygon fill="black" stroke="black" points="1763.58,-140.76 1767.08,-150.76 1770.58,-140.76 1763.58,-140.76"/>
</g>
<!-- ReactiveFormsModule -->
<g id="node8" class="node">
<title>ReactiveFormsModule</title>
<polygon fill="#8dd3c7" stroke="black" points="902.3,-122 899.3,-126 878.3,-126 875.3,-122 757.7,-122 757.7,-86 902.3,-86 902.3,-122"/>
<text text-anchor="middle" x="830" y="-99.8" font-family="Times,serif" font-size="14.00">ReactiveFormsModule</text>
</g>
<!-- ReactiveFormsModule&#45;&gt;AdminModule -->
<g id="edge7" class="edge">
<title>ReactiveFormsModule&#45;&gt;AdminModule</title>
<path fill="none" stroke="black" d="M842.41,-122.15C842.41,-156.36 842.41,-227 842.41,-227 842.41,-227 760.46,-227 760.46,-227"/>
<polygon fill="black" stroke="black" points="760.46,-223.5 750.46,-227 760.46,-230.5 760.46,-223.5"/>
</g>
<!-- ReactiveFormsModule&#45;&gt;PublicModule -->
<g id="edge27" class="edge">
<title>ReactiveFormsModule&#45;&gt;PublicModule</title>
<path fill="none" stroke="black" d="M770.26,-122.11C770.26,-122.11 770.26,-140.99 770.26,-140.99"/>
<polygon fill="black" stroke="black" points="766.76,-140.99 770.26,-150.99 773.76,-140.99 766.76,-140.99"/>
</g>
<!-- ReactiveFormsModule&#45;&gt;AppModule -->
<g id="edge19" class="edge">
<title>ReactiveFormsModule&#45;&gt;AppModule</title>
<path fill="none" stroke="black" d="M902.21,-98C1019.04,-98 1236.54,-98 1236.54,-98 1236.54,-98 1236.54,-175 1236.54,-175 1236.54,-175 1742.1,-175 1742.1,-175"/>
<polygon fill="black" stroke="black" points="1742.1,-178.5 1752.1,-175 1742.1,-171.5 1742.1,-178.5"/>
</g>
<!-- AppComponent -->
<g id="node9" class="node">
<title>AppComponent</title>
<polygon fill="#ffffb3" stroke="black" points="1628.94,-122 1523.06,-122 1523.06,-86 1628.94,-86 1628.94,-122"/>
<text text-anchor="middle" x="1576" y="-99.8" font-family="Times,serif" font-size="14.00">AppComponent</text>
</g>
<!-- AppComponent&#45;&gt;AppModule -->
<g id="edge8" class="edge">
<title>AppComponent&#45;&gt;AppModule</title>
<path fill="none" stroke="black" d="M1576,-122.24C1576,-137.57 1576,-157 1576,-157 1576,-157 1742.23,-157 1742.23,-157"/>
<polygon fill="black" stroke="black" points="1742.23,-160.5 1752.23,-157 1742.23,-153.5 1742.23,-160.5"/>
</g>
<!-- LoginComponent -->
<g id="node10" class="node">
<title>LoginComponent</title>
<polygon fill="#ffffb3" stroke="black" points="1505.28,-122 1390.72,-122 1390.72,-86 1505.28,-86 1505.28,-122"/>
<text text-anchor="middle" x="1448" y="-99.8" font-family="Times,serif" font-size="14.00">LoginComponent</text>
</g>
<!-- LoginComponent&#45;&gt;AppModule -->
<g id="edge9" class="edge">
<title>LoginComponent&#45;&gt;AppModule</title>
<path fill="none" stroke="black" d="M1448,-122.02C1448,-139.37 1448,-163 1448,-163 1448,-163 1742.26,-163 1742.26,-163"/>
<polygon fill="black" stroke="black" points="1742.26,-166.5 1752.26,-163 1742.26,-159.5 1742.26,-166.5"/>
</g>
<!-- MapComponent -->
<g id="node11" class="node">
<title>MapComponent</title>
<polygon fill="#ffffb3" stroke="black" points="2042.49,-122 1935.51,-122 1935.51,-86 2042.49,-86 2042.49,-122"/>
<text text-anchor="middle" x="1989" y="-99.8" font-family="Times,serif" font-size="14.00">MapComponent</text>
</g>
<!-- MapComponent&#45;&gt;AppModule -->
<g id="edge10" class="edge">
<title>MapComponent&#45;&gt;AppModule</title>
<path fill="none" stroke="black" d="M1989,-122.24C1989,-137.57 1989,-157 1989,-157 1989,-157 1845.83,-157 1845.83,-157"/>
<polygon fill="black" stroke="black" points="1845.83,-153.5 1835.83,-157 1845.83,-160.5 1845.83,-153.5"/>
</g>
<!-- SiteComponent -->
<g id="node12" class="node">
<title>SiteComponent</title>
<polygon fill="#ffffb3" stroke="black" points="1917.61,-122 1814.39,-122 1814.39,-86 1917.61,-86 1917.61,-122"/>
<text text-anchor="middle" x="1866" y="-99.8" font-family="Times,serif" font-size="14.00">SiteComponent</text>
</g>
<!-- SiteComponent&#45;&gt;AppModule -->
<g id="edge11" class="edge">
<title>SiteComponent&#45;&gt;AppModule</title>
<path fill="none" stroke="black" d="M1825.14,-122.11C1825.14,-122.11 1825.14,-140.99 1825.14,-140.99"/>
<polygon fill="black" stroke="black" points="1821.64,-140.99 1825.14,-150.99 1828.64,-140.99 1821.64,-140.99"/>
</g>
<!-- NavbarComponent -->
<g id="node13" class="node">
<title>NavbarComponent</title>
<polygon fill="#ffffb3" stroke="black" points="1372.03,-122 1249.97,-122 1249.97,-86 1372.03,-86 1372.03,-122"/>
<text text-anchor="middle" x="1311" y="-99.8" font-family="Times,serif" font-size="14.00">NavbarComponent</text>
</g>
<!-- NavbarComponent&#45;&gt;PublicModule -->
<g id="edge23" class="edge">
<title>NavbarComponent&#45;&gt;PublicModule</title>
<path fill="none" stroke="black" d="M1249.86,-110C1138.54,-110 914.14,-110 914.14,-110 914.14,-110 914.14,-169 914.14,-169 914.14,-169 793.01,-169 793.01,-169"/>
<polygon fill="black" stroke="black" points="793.01,-165.5 783.01,-169 793.01,-172.5 793.01,-165.5"/>
</g>
<!-- NavbarComponent&#45;&gt;AppModule -->
<g id="edge12" class="edge">
<title>NavbarComponent&#45;&gt;AppModule</title>
<path fill="none" stroke="black" d="M1311,-122.11C1311,-141.34 1311,-169 1311,-169 1311,-169 1741.98,-169 1741.98,-169"/>
<polygon fill="black" stroke="black" points="1741.98,-172.5 1751.98,-169 1741.98,-165.5 1741.98,-172.5"/>
</g>
<!-- RegistrationComponent -->
<g id="node14" class="node">
<title>RegistrationComponent</title>
<polygon fill="#ffffb3" stroke="black" points="1796.77,-122 1647.23,-122 1647.23,-86 1796.77,-86 1796.77,-122"/>
<text text-anchor="middle" x="1722" y="-99.8" font-family="Times,serif" font-size="14.00">RegistrationComponent</text>
</g>
<!-- RegistrationComponent&#45;&gt;AppModule -->
<g id="edge13" class="edge">
<title>RegistrationComponent&#45;&gt;AppModule</title>
<path fill="none" stroke="black" d="M1781.98,-122.11C1781.98,-122.11 1781.98,-140.99 1781.98,-140.99"/>
<polygon fill="black" stroke="black" points="1778.48,-140.99 1781.98,-150.99 1785.48,-140.99 1778.48,-140.99"/>
</g>
<!-- AppComponent  -->
<g id="node20" class="node">
<title>AppComponent </title>
<polygon fill="#80b1d3" stroke="black" points="1848.44,-255 1739.56,-255 1739.56,-219 1848.44,-219 1848.44,-255"/>
<text text-anchor="middle" x="1794" y="-232.8" font-family="Times,serif" font-size="14.00">AppComponent </text>
</g>
<!-- AppModule&#45;&gt;AppComponent  -->
<g id="edge21" class="edge">
<title>AppModule&#45;&gt;AppComponent </title>
<path fill="none" stroke="black" stroke-dasharray="1,5" d="M1794,-187.22C1794,-187.22 1794,-208.73 1794,-208.73"/>
<polygon fill="black" stroke="black" points="1790.5,-208.73 1794,-218.73 1797.5,-208.73 1790.5,-208.73"/>
</g>
<!-- BrowserModule -->
<g id="node16" class="node">
<title>BrowserModule</title>
<polygon fill="#8dd3c7" stroke="black" points="2921.47,-122 2918.47,-126 2897.47,-126 2894.47,-122 2814.53,-122 2814.53,-86 2921.47,-86 2921.47,-122"/>
<text text-anchor="middle" x="2868" y="-99.8" font-family="Times,serif" font-size="14.00">BrowserModule</text>
</g>
<!-- BrowserModule&#45;&gt;AppModule -->
<g id="edge14" class="edge">
<title>BrowserModule&#45;&gt;AppModule</title>
<path fill="none" stroke="black" d="M2868,-122.22C2868,-142.37 2868,-172 2868,-172 2868,-172 1845.77,-172 1845.77,-172"/>
<polygon fill="black" stroke="black" points="1845.77,-168.5 1835.77,-172 1845.77,-175.5 1845.77,-168.5"/>
</g>
<!-- AppRoutingModule -->
<g id="node17" class="node">
<title>AppRoutingModule</title>
<polygon fill="#8dd3c7" stroke="black" points="2796.27,-122 2793.27,-126 2772.27,-126 2769.27,-122 2667.73,-122 2667.73,-86 2796.27,-86 2796.27,-122"/>
<text text-anchor="middle" x="2732" y="-99.8" font-family="Times,serif" font-size="14.00">AppRoutingModule</text>
</g>
<!-- AppRoutingModule&#45;&gt;AppModule -->
<g id="edge15" class="edge">
<title>AppRoutingModule&#45;&gt;AppModule</title>
<path fill="none" stroke="black" d="M2732,-122.22C2732,-140.83 2732,-167 2732,-167 2732,-167 1845.82,-167 1845.82,-167"/>
<polygon fill="black" stroke="black" points="1845.82,-163.5 1835.82,-167 1845.82,-170.5 1845.82,-163.5"/>
</g>
<!-- HttpClientModule -->
<g id="node18" class="node">
<title>HttpClientModule</title>
<polygon fill="#8dd3c7" stroke="black" points="3219.16,-122 3216.16,-126 3195.16,-126 3192.16,-122 3100.84,-122 3100.84,-86 3219.16,-86 3219.16,-122"/>
<text text-anchor="middle" x="3160" y="-99.8" font-family="Times,serif" font-size="14.00">HttpClientModule</text>
</g>
<!-- HttpClientModule&#45;&gt;AppModule -->
<g id="edge18" class="edge">
<title>HttpClientModule&#45;&gt;AppModule</title>
<path fill="none" stroke="black" d="M3160,-122.09C3160,-145.13 3160,-182 3160,-182 3160,-182 1846,-182 1846,-182"/>
<polygon fill="black" stroke="black" points="1846,-178.5 1836,-182 1846,-185.5 1846,-178.5"/>
</g>
<!-- NgxPaginationModule -->
<g id="node19" class="node">
<title>NgxPaginationModule</title>
<polygon fill="#8dd3c7" stroke="black" points="3082.54,-122 3079.54,-126 3058.54,-126 3055.54,-122 2939.46,-122 2939.46,-86 3082.54,-86 3082.54,-122"/>
<text text-anchor="middle" x="3011" y="-99.8" font-family="Times,serif" font-size="14.00">NgxPaginationModule</text>
</g>
<!-- NgxPaginationModule&#45;&gt;AppModule -->
<g id="edge20" class="edge">
<title>NgxPaginationModule&#45;&gt;AppModule</title>
<path fill="none" stroke="black" d="M3011,-122.04C3011,-143.66 3011,-177 3011,-177 3011,-177 1845.89,-177 1845.89,-177"/>
<polygon fill="black" stroke="black" points="1845.89,-173.5 1835.89,-177 1845.89,-180.5 1845.89,-173.5"/>
</g>
<!-- { provide: HTTP_INTERCEPTORS, useClass: JwtInterceptor, multi: &#160;} -->
<g id="node21" class="node">
<title>{ provide: HTTP_INTERCEPTORS, useClass: JwtInterceptor, multi: &#160;}</title>
<ellipse fill="#fdb462" stroke="black" cx="2355" cy="-104" rx="289.13" ry="18"/>
<text text-anchor="middle" x="2355" y="-99.8" font-family="Times,serif" font-size="14.00">{ provide: HTTP_INTERCEPTORS, useClass: JwtInterceptor, multi: &#160;}</text>
</g>
<!-- { provide: HTTP_INTERCEPTORS, useClass: JwtInterceptor, multi: &#160;}&#45;&gt;AppModule -->
<g id="edge22" class="edge">
<title>{ provide: HTTP_INTERCEPTORS, useClass: JwtInterceptor, multi: &#160;}&#45;&gt;AppModule</title>
<path fill="none" stroke="black" d="M2355,-122.03C2355,-139.06 2355,-162 2355,-162 2355,-162 1845.71,-162 1845.71,-162"/>
<polygon fill="black" stroke="black" points="1845.71,-158.5 1835.71,-162 1845.71,-165.5 1845.71,-158.5"/>
</g>
<!-- CarteComponent -->
<g id="node22" class="node">
<title>CarteComponent</title>
<polygon fill="#ffffb3" stroke="black" points="275.65,-255 164.35,-255 164.35,-219 275.65,-219 275.65,-255"/>
<text text-anchor="middle" x="220" y="-232.8" font-family="Times,serif" font-size="14.00">CarteComponent</text>
</g>
<!-- CarteComponent&#45;&gt;PublicModule -->
<g id="edge24" class="edge">
<title>CarteComponent&#45;&gt;PublicModule</title>
<path fill="none" stroke="black" d="M220,-218.96C220,-202.27 220,-180 220,-180 220,-180 677.01,-180 677.01,-180"/>
<polygon fill="black" stroke="black" points="677.01,-183.5 687.01,-180 677.01,-176.5 677.01,-183.5"/>
</g>
</g>
</svg>
