<?xml version="1.0" encoding="UTF-8" standalone="no"?>
<!DOCTYPE svg PUBLIC "-//W3C//DTD SVG 1.1//EN"
 "http://www.w3.org/Graphics/SVG/1.1/DTD/svg11.dtd">
<!-- Generated by graphviz version 2.47.0 (20210316.0004)
 -->
<!-- Title: dependencies Pages: 1 -->
<svg width="4979pt" height="290pt"
 viewBox="0.00 0.00 4979.00 290.00" xmlns="http://www.w3.org/2000/svg" xmlns:xlink="http://www.w3.org/1999/xlink">
<g id="graph0" class="graph" transform="scale(1 1) rotate(0) translate(4 286)">
<title>dependencies</title>
<polygon fill="white" stroke="transparent" points="-4,4 -4,-286 4975,-286 4975,4 -4,4"/>
<text text-anchor="start" x="2464.51" y="-42.4" font-family="Times-12" font-weight="bold" font-size="14.00">Legend</text>
<polygon fill="#ffffb3" stroke="transparent" points="2251.5,-10 2251.5,-30 2271.5,-30 2271.5,-10 2251.5,-10"/>
<text text-anchor="start" x="2275.13" y="-15.4" font-family="Times-12" font-size="14.00"> &#160;Declarations</text>
<polygon fill="#8dd3c7" stroke="transparent" points="2364.5,-10 2364.5,-30 2384.5,-30 2384.5,-10 2364.5,-10"/>
<text text-anchor="start" x="2388.23" y="-15.4" font-family="Times-12" font-size="14.00"> &#160;Module</text>
<polygon fill="#80b1d3" stroke="transparent" points="2450.5,-10 2450.5,-30 2470.5,-30 2470.5,-10 2450.5,-10"/>
<text text-anchor="start" x="2474.28" y="-15.4" font-family="Times-12" font-size="14.00"> &#160;Bootstrap</text>
<polygon fill="#fdb462" stroke="transparent" points="2547.5,-10 2547.5,-30 2567.5,-30 2567.5,-10 2547.5,-10"/>
<text text-anchor="start" x="2571.17" y="-15.4" font-family="Times-12" font-size="14.00"> &#160;Providers</text>
<polygon fill="#fb8072" stroke="transparent" points="2643.5,-10 2643.5,-30 2663.5,-30 2663.5,-10 2643.5,-10"/>
<text text-anchor="start" x="2667.23" y="-15.4" font-family="Times-12" font-size="14.00"> &#160;Exports</text>
<g id="clust1" class="cluster">
<title>cluster_AppModule</title>
<polygon fill="none" stroke="black" stroke-dasharray="1,5" points="8,-70 8,-274 4619,-274 4619,-70 8,-70"/>
</g>
<g id="clust2" class="cluster">
<title>cluster_AppModule_declarations</title>
<polygon fill="none" stroke="black" points="618,-78 618,-130 2311,-130 2311,-78 618,-78"/>
</g>
<g id="clust15" class="cluster">
<title>cluster_AppModule_imports</title>
<polygon fill="none" stroke="black" points="2319,-78 2319,-130 4611,-130 4611,-78 2319,-78"/>
</g>
<g id="clust17" class="cluster">
<title>cluster_AppModule_bootstrap</title>
<polygon fill="none" stroke="black" points="2393,-214 2393,-266 2517,-266 2517,-214 2393,-214"/>
</g>
<g id="clust18" class="cluster">
<title>cluster_AppModule_providers</title>
<polygon fill="none" stroke="black" points="16,-78 16,-130 610,-130 610,-78 16,-78"/>
</g>
<g id="clust19" class="cluster">
<title>cluster_AppRoutingModule</title>
<polygon fill="none" stroke="black" stroke-dasharray="1,5" points="4627,-138 4627,-206 4963,-206 4963,-138 4627,-138"/>
</g>
<g id="clust21" class="cluster">
<title>cluster_AppRoutingModule_imports</title>
<polygon fill="none" stroke="black" points="4761,-146 4761,-198 4955,-198 4955,-146 4761,-146"/>
</g>
<g id="clust22" class="cluster">
<title>cluster_AppRoutingModule_exports</title>
<polygon fill="none" stroke="black" points="4635,-146 4635,-198 4753,-198 4753,-146 4635,-146"/>
</g>
<!-- AppComponent -->
<g id="node1" class="node">
<title>AppComponent</title>
<polygon fill="#ffffb3" stroke="black" points="2302.94,-122 2197.06,-122 2197.06,-86 2302.94,-86 2302.94,-122"/>
<text text-anchor="middle" x="2250" y="-99.8" font-family="Times,serif" font-size="14.00">AppComponent</text>
</g>
<!-- AppModule -->
<g id="node13" class="node">
<title>AppModule</title>
<polygon fill="#8dd3c7" stroke="black" points="2496.66,-190 2493.66,-194 2472.66,-194 2469.66,-190 2413.34,-190 2413.34,-154 2496.66,-154 2496.66,-190"/>
<text text-anchor="middle" x="2455" y="-167.8" font-family="Times,serif" font-size="14.00">AppModule</text>
</g>
<!-- AppComponent&#45;&gt;AppModule -->
<g id="edge1" class="edge">
<title>AppComponent&#45;&gt;AppModule</title>
<path fill="none" stroke="black" d="M2250,-122.24C2250,-137.57 2250,-157 2250,-157 2250,-157 2403.02,-157 2403.02,-157"/>
<polygon fill="black" stroke="black" points="2403.02,-160.5 2413.02,-157 2403.02,-153.5 2403.02,-160.5"/>
</g>
<!-- MapComponent -->
<g id="node2" class="node">
<title>MapComponent</title>
<polygon fill="#ffffb3" stroke="black" points="2179.49,-122 2072.51,-122 2072.51,-86 2179.49,-86 2179.49,-122"/>
<text text-anchor="middle" x="2126" y="-99.8" font-family="Times,serif" font-size="14.00">MapComponent</text>
</g>
<!-- MapComponent&#45;&gt;AppModule -->
<g id="edge2" class="edge">
<title>MapComponent&#45;&gt;AppModule</title>
<path fill="none" stroke="black" d="M2126,-122.01C2126,-138.05 2126,-159 2126,-159 2126,-159 2403.33,-159 2403.33,-159"/>
<polygon fill="black" stroke="black" points="2403.33,-162.5 2413.33,-159 2403.33,-155.5 2403.33,-162.5"/>
</g>
<!-- CarteComponent -->
<g id="node3" class="node">
<title>CarteComponent</title>
<polygon fill="#ffffb3" stroke="black" points="2054.65,-122 1943.35,-122 1943.35,-86 2054.65,-86 2054.65,-122"/>
<text text-anchor="middle" x="1999" y="-99.8" font-family="Times,serif" font-size="14.00">CarteComponent</text>
</g>
<!-- CarteComponent&#45;&gt;AppModule -->
<g id="edge3" class="edge">
<title>CarteComponent&#45;&gt;AppModule</title>
<path fill="none" stroke="black" d="M1999,-122.03C1999,-139.06 1999,-162 1999,-162 1999,-162 2403.32,-162 2403.32,-162"/>
<polygon fill="black" stroke="black" points="2403.32,-165.5 2413.32,-162 2403.32,-158.5 2403.32,-165.5"/>
</g>
<!-- SiteComponent -->
<g id="node4" class="node">
<title>SiteComponent</title>
<polygon fill="#ffffb3" stroke="black" points="1925.61,-122 1822.39,-122 1822.39,-86 1925.61,-86 1925.61,-122"/>
<text text-anchor="middle" x="1874" y="-99.8" font-family="Times,serif" font-size="14.00">SiteComponent</text>
</g>
<!-- SiteComponent&#45;&gt;AppModule -->
<g id="edge4" class="edge">
<title>SiteComponent&#45;&gt;AppModule</title>
<path fill="none" stroke="black" d="M1874,-122C1874,-139.68 1874,-164 1874,-164 1874,-164 2403.22,-164 2403.22,-164"/>
<polygon fill="black" stroke="black" points="2403.22,-167.5 2413.22,-164 2403.22,-160.5 2403.22,-167.5"/>
</g>
<!-- NavBarComponent -->
<g id="node5" class="node">
<title>NavBarComponent</title>
<polygon fill="#ffffb3" stroke="black" points="1804.37,-122 1679.63,-122 1679.63,-86 1804.37,-86 1804.37,-122"/>
<text text-anchor="middle" x="1742" y="-99.8" font-family="Times,serif" font-size="14.00">NavBarComponent</text>
</g>
<!-- NavBarComponent&#45;&gt;AppModule -->
<g id="edge5" class="edge">
<title>NavBarComponent&#45;&gt;AppModule</title>
<path fill="none" stroke="black" d="M1721.19,-122.11C1721.19,-141.34 1721.19,-169 1721.19,-169 1721.19,-169 2403.18,-169 2403.18,-169"/>
<polygon fill="black" stroke="black" points="2403.18,-172.5 2413.18,-169 2403.18,-165.5 2403.18,-172.5"/>
</g>
<!-- NavBarComponent&#45;&gt;AppModule -->
<g id="edge12" class="edge">
<title>NavBarComponent&#45;&gt;AppModule</title>
<path fill="none" stroke="black" d="M1762.81,-122.27C1762.81,-140.56 1762.81,-166 1762.81,-166 1762.81,-166 2403.26,-166 2403.26,-166"/>
<polygon fill="black" stroke="black" points="2403.26,-169.5 2413.26,-166 2403.26,-162.5 2403.26,-169.5"/>
</g>
<!-- NavbarComponent -->
<g id="node6" class="node">
<title>NavbarComponent</title>
<polygon fill="#ffffb3" stroke="black" points="1661.03,-122 1538.97,-122 1538.97,-86 1661.03,-86 1661.03,-122"/>
<text text-anchor="middle" x="1600" y="-99.8" font-family="Times,serif" font-size="14.00">NavbarComponent</text>
</g>
<!-- NavbarComponent&#45;&gt;AppModule -->
<g id="edge6" class="edge">
<title>NavbarComponent&#45;&gt;AppModule</title>
<path fill="none" stroke="black" d="M1600,-122.31C1600,-142.15 1600,-171 1600,-171 1600,-171 2403.18,-171 2403.18,-171"/>
<polygon fill="black" stroke="black" points="2403.18,-174.5 2413.18,-171 2403.18,-167.5 2403.18,-174.5"/>
</g>
<!-- DashbordComponent -->
<g id="node7" class="node">
<title>DashbordComponent</title>
<polygon fill="#ffffb3" stroke="black" points="1520.76,-122 1385.24,-122 1385.24,-86 1520.76,-86 1520.76,-122"/>
<text text-anchor="middle" x="1453" y="-99.8" font-family="Times,serif" font-size="14.00">DashbordComponent</text>
</g>
<!-- DashbordComponent&#45;&gt;AppModule -->
<g id="edge7" class="edge">
<title>DashbordComponent&#45;&gt;AppModule</title>
<path fill="none" stroke="black" d="M1453,-122.03C1453,-142.77 1453,-174 1453,-174 1453,-174 2403.22,-174 2403.22,-174"/>
<polygon fill="black" stroke="black" points="2403.22,-177.5 2413.22,-174 2403.22,-170.5 2403.22,-177.5"/>
</g>
<!-- SlideBarComponent -->
<g id="node8" class="node">
<title>SlideBarComponent</title>
<polygon fill="#ffffb3" stroke="black" points="1367.32,-122 1236.68,-122 1236.68,-86 1367.32,-86 1367.32,-122"/>
<text text-anchor="middle" x="1302" y="-99.8" font-family="Times,serif" font-size="14.00">SlideBarComponent</text>
</g>
<!-- SlideBarComponent&#45;&gt;AppModule -->
<g id="edge8" class="edge">
<title>SlideBarComponent&#45;&gt;AppModule</title>
<path fill="none" stroke="black" d="M1302,-122.17C1302,-143.5 1302,-176 1302,-176 1302,-176 2403.28,-176 2403.28,-176"/>
<polygon fill="black" stroke="black" points="2403.28,-179.5 2413.28,-176 2403.28,-172.5 2403.28,-179.5"/>
</g>
<!-- LoginComponent -->
<g id="node9" class="node">
<title>LoginComponent</title>
<polygon fill="#ffffb3" stroke="black" points="1218.28,-122 1103.72,-122 1103.72,-86 1218.28,-86 1218.28,-122"/>
<text text-anchor="middle" x="1161" y="-99.8" font-family="Times,serif" font-size="14.00">LoginComponent</text>
</g>
<!-- LoginComponent&#45;&gt;AppModule -->
<g id="edge9" class="edge">
<title>LoginComponent&#45;&gt;AppModule</title>
<path fill="none" stroke="black" d="M1161,-122.29C1161,-144.21 1161,-178 1161,-178 1161,-178 2403.05,-178 2403.05,-178"/>
<polygon fill="black" stroke="black" points="2403.05,-181.5 2413.05,-178 2403.05,-174.5 2403.05,-181.5"/>
</g>
<!-- RegistrationComponent -->
<g id="node10" class="node">
<title>RegistrationComponent</title>
<polygon fill="#ffffb3" stroke="black" points="1085.77,-122 936.23,-122 936.23,-86 1085.77,-86 1085.77,-122"/>
<text text-anchor="middle" x="1011" y="-99.8" font-family="Times,serif" font-size="14.00">RegistrationComponent</text>
</g>
<!-- RegistrationComponent&#45;&gt;AppModule -->
<g id="edge10" class="edge">
<title>RegistrationComponent&#45;&gt;AppModule</title>
<path fill="none" stroke="black" d="M1011,-122.25C1011,-145.02 1011,-181 1011,-181 1011,-181 2403.34,-181 2403.34,-181"/>
<polygon fill="black" stroke="black" points="2403.34,-184.5 2413.34,-181 2403.34,-177.5 2403.34,-184.5"/>
</g>
<!-- RegisterComponent -->
<g id="node11" class="node">
<title>RegisterComponent</title>
<polygon fill="#ffffb3" stroke="black" points="917.98,-122 790.02,-122 790.02,-86 917.98,-86 917.98,-122"/>
<text text-anchor="middle" x="854" y="-99.8" font-family="Times,serif" font-size="14.00">RegisterComponent</text>
</g>
<!-- RegisterComponent&#45;&gt;AppModule -->
<g id="edge11" class="edge">
<title>RegisterComponent&#45;&gt;AppModule</title>
<path fill="none" stroke="black" d="M854,-122.32C854,-145.66 854,-183 854,-183 854,-183 2403,-183 2403,-183"/>
<polygon fill="black" stroke="black" points="2403,-186.5 2413,-183 2403,-179.5 2403,-186.5"/>
</g>
<!-- GestionSiteComponent -->
<g id="node12" class="node">
<title>GestionSiteComponent</title>
<polygon fill="#ffffb3" stroke="black" points="772.16,-122 625.84,-122 625.84,-86 772.16,-86 772.16,-122"/>
<text text-anchor="middle" x="699" y="-99.8" font-family="Times,serif" font-size="14.00">GestionSiteComponent</text>
</g>
<!-- GestionSiteComponent&#45;&gt;AppModule -->
<g id="edge13" class="edge">
<title>GestionSiteComponent&#45;&gt;AppModule</title>
<path fill="none" stroke="black" d="M699,-122.2C699,-146.36 699,-186 699,-186 699,-186 2403.33,-186 2403.33,-186"/>
<polygon fill="black" stroke="black" points="2403.33,-189.5 2413.33,-186 2403.32,-182.5 2403.33,-189.5"/>
</g>
<!-- AppComponent  -->
<g id="node30" class="node">
<title>AppComponent </title>
<polygon fill="#80b1d3" stroke="black" points="2509.44,-258 2400.56,-258 2400.56,-222 2509.44,-222 2509.44,-258"/>
<text text-anchor="middle" x="2455" y="-235.8" font-family="Times,serif" font-size="14.00">AppComponent </text>
</g>
<!-- AppModule&#45;&gt;AppComponent  -->
<g id="edge30" class="edge">
<title>AppModule&#45;&gt;AppComponent </title>
<path fill="none" stroke="black" stroke-dasharray="1,5" d="M2455,-190.22C2455,-190.22 2455,-211.73 2455,-211.73"/>
<polygon fill="black" stroke="black" points="2451.5,-211.73 2455,-221.73 2458.5,-211.73 2451.5,-211.73"/>
</g>
<!-- BrowserModule -->
<g id="node14" class="node">
<title>BrowserModule</title>
<polygon fill="#8dd3c7" stroke="black" points="4456.47,-122 4453.47,-126 4432.47,-126 4429.47,-122 4349.53,-122 4349.53,-86 4456.47,-86 4456.47,-122"/>
<text text-anchor="middle" x="4403" y="-99.8" font-family="Times,serif" font-size="14.00">BrowserModule</text>
</g>
<!-- BrowserModule&#45;&gt;AppModule -->
<g id="edge14" class="edge">
<title>BrowserModule&#45;&gt;AppModule</title>
<path fill="none" stroke="black" d="M4403,-122.2C4403,-146.36 4403,-186 4403,-186 4403,-186 2507.04,-186 2507.04,-186"/>
<polygon fill="black" stroke="black" points="2507.04,-182.5 2497.04,-186 2507.04,-189.5 2507.04,-182.5"/>
</g>
<!-- AppRoutingModule -->
<g id="node15" class="node">
<title>AppRoutingModule</title>
<polygon fill="#8dd3c7" stroke="black" points="4603.27,-122 4600.27,-126 4579.27,-126 4576.27,-122 4474.73,-122 4474.73,-86 4603.27,-86 4603.27,-122"/>
<text text-anchor="middle" x="4539" y="-99.8" font-family="Times,serif" font-size="14.00">AppRoutingModule</text>
</g>
<!-- AppRoutingModule&#45;&gt;AppModule -->
<g id="edge15" class="edge">
<title>AppRoutingModule&#45;&gt;AppModule</title>
<path fill="none" stroke="black" d="M4539,-122.23C4539,-146.93 4539,-188 4539,-188 4539,-188 2507.1,-188 2507.1,-188"/>
<polygon fill="black" stroke="black" points="2507.1,-184.5 2497.1,-188 2507.1,-191.5 2507.1,-184.5"/>
</g>
<!-- RouterModule  -->
<g id="node33" class="node">
<title>RouterModule </title>
<polygon fill="#fb8072" stroke="black" points="4744.65,-190 4643.35,-190 4643.35,-154 4744.65,-154 4744.65,-190"/>
<text text-anchor="middle" x="4694" y="-167.8" font-family="Times,serif" font-size="14.00">RouterModule </text>
</g>
<!-- AppRoutingModule&#45;&gt;RouterModule  -->
<g id="edge33" class="edge">
<title>AppRoutingModule&#45;&gt;RouterModule </title>
<path fill="none" stroke="black" stroke-dasharray="5,2" d="M4603.39,-110C4645.97,-110 4694,-110 4694,-110 4694,-110 4694,-143.73 4694,-143.73"/>
<polygon fill="black" stroke="black" points="4690.5,-143.73 4694,-153.73 4697.5,-143.73 4690.5,-143.73"/>
</g>
<!-- FormsModule -->
<g id="node16" class="node">
<title>FormsModule</title>
<polygon fill="#8dd3c7" stroke="black" points="4204.83,-122 4201.83,-126 4180.83,-126 4177.83,-122 4109.17,-122 4109.17,-86 4204.83,-86 4204.83,-122"/>
<text text-anchor="middle" x="4157" y="-99.8" font-family="Times,serif" font-size="14.00">FormsModule</text>
</g>
<!-- FormsModule&#45;&gt;AppModule -->
<g id="edge16" class="edge">
<title>FormsModule&#45;&gt;AppModule</title>
<path fill="none" stroke="black" d="M4157,-122.25C4157,-145.02 4157,-181 4157,-181 4157,-181 2507.07,-181 2507.07,-181"/>
<polygon fill="black" stroke="black" points="2507.07,-177.5 2497.07,-181 2507.07,-184.5 2507.07,-177.5"/>
</g>
<!-- HttpClientModule -->
<g id="node17" class="node">
<title>HttpClientModule</title>
<polygon fill="#8dd3c7" stroke="black" points="4091.16,-122 4088.16,-126 4067.16,-126 4064.16,-122 3972.84,-122 3972.84,-86 4091.16,-86 4091.16,-122"/>
<text text-anchor="middle" x="4032" y="-99.8" font-family="Times,serif" font-size="14.00">HttpClientModule</text>
</g>
<!-- HttpClientModule&#45;&gt;AppModule -->
<g id="edge17" class="edge">
<title>HttpClientModule&#45;&gt;AppModule</title>
<path fill="none" stroke="black" d="M4032,-122.29C4032,-144.21 4032,-178 4032,-178 4032,-178 2506.77,-178 2506.77,-178"/>
<polygon fill="black" stroke="black" points="2506.77,-174.5 2496.77,-178 2506.77,-181.5 2506.77,-174.5"/>
</g>
<!-- ReactiveFormsModule -->
<g id="node18" class="node">
<title>ReactiveFormsModule</title>
<polygon fill="#8dd3c7" stroke="black" points="3955.3,-122 3952.3,-126 3931.3,-126 3928.3,-122 3810.7,-122 3810.7,-86 3955.3,-86 3955.3,-122"/>
<text text-anchor="middle" x="3883" y="-99.8" font-family="Times,serif" font-size="14.00">ReactiveFormsModule</text>
</g>
<!-- ReactiveFormsModule&#45;&gt;AppModule -->
<g id="edge18" class="edge">
<title>ReactiveFormsModule&#45;&gt;AppModule</title>
<path fill="none" stroke="black" d="M3883,-122.17C3883,-143.5 3883,-176 3883,-176 3883,-176 2506.96,-176 2506.96,-176"/>
<polygon fill="black" stroke="black" points="2506.96,-172.5 2496.96,-176 2506.96,-179.5 2506.96,-172.5"/>
</g>
<!-- NgxPaginationModule -->
<g id="node19" class="node">
<title>NgxPaginationModule</title>
<polygon fill="#8dd3c7" stroke="black" points="3792.54,-122 3789.54,-126 3768.54,-126 3765.54,-122 3649.46,-122 3649.46,-86 3792.54,-86 3792.54,-122"/>
<text text-anchor="middle" x="3721" y="-99.8" font-family="Times,serif" font-size="14.00">NgxPaginationModule</text>
</g>
<!-- NgxPaginationModule&#45;&gt;AppModule -->
<g id="edge19" class="edge">
<title>NgxPaginationModule&#45;&gt;AppModule</title>
<path fill="none" stroke="black" d="M3721,-122.03C3721,-142.77 3721,-174 3721,-174 3721,-174 2506.76,-174 2506.76,-174"/>
<polygon fill="black" stroke="black" points="2506.76,-170.5 2496.76,-174 2506.76,-177.5 2506.76,-170.5"/>
</g>
<!-- BrowserAnimationsModule -->
<g id="node20" class="node">
<title>BrowserAnimationsModule</title>
<polygon fill="#8dd3c7" stroke="black" points="3631.3,-122 3628.3,-126 3607.3,-126 3604.3,-122 3458.7,-122 3458.7,-86 3631.3,-86 3631.3,-122"/>
<text text-anchor="middle" x="3545" y="-99.8" font-family="Times,serif" font-size="14.00">BrowserAnimationsModule</text>
</g>
<!-- BrowserAnimationsModule&#45;&gt;AppModule -->
<g id="edge20" class="edge">
<title>BrowserAnimationsModule&#45;&gt;AppModule</title>
<path fill="none" stroke="black" d="M3545,-122.31C3545,-142.15 3545,-171 3545,-171 3545,-171 2506.73,-171 2506.73,-171"/>
<polygon fill="black" stroke="black" points="2506.73,-167.5 2496.73,-171 2506.73,-174.5 2506.73,-167.5"/>
</g>
<!-- MatPaginatorModule -->
<g id="node21" class="node">
<title>MatPaginatorModule</title>
<polygon fill="#8dd3c7" stroke="black" points="3440.75,-122 3437.75,-126 3416.75,-126 3413.75,-122 3305.25,-122 3305.25,-86 3440.75,-86 3440.75,-122"/>
<text text-anchor="middle" x="3373" y="-99.8" font-family="Times,serif" font-size="14.00">MatPaginatorModule</text>
</g>
<!-- MatPaginatorModule&#45;&gt;AppModule -->
<g id="edge21" class="edge">
<title>MatPaginatorModule&#45;&gt;AppModule</title>
<path fill="none" stroke="black" d="M3373,-122.11C3373,-141.34 3373,-169 3373,-169 3373,-169 2506.83,-169 2506.83,-169"/>
<polygon fill="black" stroke="black" points="2506.83,-165.5 2496.83,-169 2506.83,-172.5 2506.83,-165.5"/>
</g>
<!-- MatGridListModule -->
<g id="node22" class="node">
<title>MatGridListModule</title>
<polygon fill="#8dd3c7" stroke="black" points="3286.54,-122 3283.54,-126 3262.54,-126 3259.54,-122 3157.46,-122 3157.46,-86 3286.54,-86 3286.54,-122"/>
<text text-anchor="middle" x="3222" y="-99.8" font-family="Times,serif" font-size="14.00">MatGridListModule</text>
</g>
<!-- MatGridListModule&#45;&gt;AppModule -->
<g id="edge22" class="edge">
<title>MatGridListModule&#45;&gt;AppModule</title>
<path fill="none" stroke="black" d="M3222,-122.27C3222,-140.56 3222,-166 3222,-166 3222,-166 2506.78,-166 2506.78,-166"/>
<polygon fill="black" stroke="black" points="2506.78,-162.5 2496.78,-166 2506.78,-169.5 2506.78,-162.5"/>
</g>
<!-- MatFormFieldModule -->
<g id="node23" class="node">
<title>MatFormFieldModule</title>
<polygon fill="#8dd3c7" stroke="black" points="3139.71,-122 3136.71,-126 3115.71,-126 3112.71,-122 2998.29,-122 2998.29,-86 3139.71,-86 3139.71,-122"/>
<text text-anchor="middle" x="3069" y="-99.8" font-family="Times,serif" font-size="14.00">MatFormFieldModule</text>
</g>
<!-- MatFormFieldModule&#45;&gt;AppModule -->
<g id="edge23" class="edge">
<title>MatFormFieldModule&#45;&gt;AppModule</title>
<path fill="none" stroke="black" d="M3069,-122C3069,-139.68 3069,-164 3069,-164 3069,-164 2506.72,-164 2506.72,-164"/>
<polygon fill="black" stroke="black" points="2506.72,-160.5 2496.72,-164 2506.72,-167.5 2506.72,-160.5"/>
</g>
<!-- MatInputModule -->
<g id="node24" class="node">
<title>MatInputModule</title>
<polygon fill="#8dd3c7" stroke="black" points="2980.65,-122 2977.65,-126 2956.65,-126 2953.65,-122 2869.35,-122 2869.35,-86 2980.65,-86 2980.65,-122"/>
<text text-anchor="middle" x="2925" y="-99.8" font-family="Times,serif" font-size="14.00">MatInputModule</text>
</g>
<!-- MatInputModule&#45;&gt;AppModule -->
<g id="edge24" class="edge">
<title>MatInputModule&#45;&gt;AppModule</title>
<path fill="none" stroke="black" d="M2925,-122.03C2925,-139.06 2925,-162 2925,-162 2925,-162 2506.71,-162 2506.71,-162"/>
<polygon fill="black" stroke="black" points="2506.71,-158.5 2496.71,-162 2506.71,-165.5 2506.71,-158.5"/>
</g>
<!-- MatButtonModule -->
<g id="node25" class="node">
<title>MatButtonModule</title>
<polygon fill="#8dd3c7" stroke="black" points="2851.22,-122 2848.22,-126 2827.22,-126 2824.22,-122 2730.78,-122 2730.78,-86 2851.22,-86 2851.22,-122"/>
<text text-anchor="middle" x="2791" y="-99.8" font-family="Times,serif" font-size="14.00">MatButtonModule</text>
</g>
<!-- MatButtonModule&#45;&gt;AppModule -->
<g id="edge25" class="edge">
<title>MatButtonModule&#45;&gt;AppModule</title>
<path fill="none" stroke="black" d="M2791,-122.01C2791,-138.05 2791,-159 2791,-159 2791,-159 2506.88,-159 2506.88,-159"/>
<polygon fill="black" stroke="black" points="2506.88,-155.5 2496.88,-159 2506.88,-162.5 2506.88,-155.5"/>
</g>
<!-- MatTableModule -->
<g id="node26" class="node">
<title>MatTableModule</title>
<polygon fill="#8dd3c7" stroke="black" points="2712.97,-122 2709.97,-126 2688.97,-126 2685.97,-122 2599.03,-122 2599.03,-86 2712.97,-86 2712.97,-122"/>
<text text-anchor="middle" x="2656" y="-99.8" font-family="Times,serif" font-size="14.00">MatTableModule</text>
</g>
<!-- MatTableModule&#45;&gt;AppModule -->
<g id="edge26" class="edge">
<title>MatTableModule&#45;&gt;AppModule</title>
<path fill="none" stroke="black" d="M2656,-122.24C2656,-137.57 2656,-157 2656,-157 2656,-157 2507.14,-157 2507.14,-157"/>
<polygon fill="black" stroke="black" points="2507.14,-153.5 2497.14,-157 2507.14,-160.5 2507.14,-153.5"/>
</g>
<!-- MatSelectModule -->
<g id="node27" class="node">
<title>MatSelectModule</title>
<polygon fill="#8dd3c7" stroke="black" points="2581.31,-122 2578.31,-126 2557.31,-126 2554.31,-122 2464.69,-122 2464.69,-86 2581.31,-86 2581.31,-122"/>
<text text-anchor="middle" x="2523" y="-99.8" font-family="Times,serif" font-size="14.00">MatSelectModule</text>
</g>
<!-- MatSelectModule&#45;&gt;AppModule -->
<g id="edge27" class="edge">
<title>MatSelectModule&#45;&gt;AppModule</title>
<path fill="none" stroke="black" d="M2480.84,-122.22C2480.84,-122.22 2480.84,-143.73 2480.84,-143.73"/>
<polygon fill="black" stroke="black" points="2477.34,-143.73 2480.84,-153.73 2484.34,-143.73 2477.34,-143.73"/>
</g>
<!-- MatDialogModule -->
<g id="node28" class="node">
<title>MatDialogModule</title>
<polygon fill="#8dd3c7" stroke="black" points="2447.2,-122 2444.2,-126 2423.2,-126 2420.2,-122 2326.8,-122 2326.8,-86 2447.2,-86 2447.2,-122"/>
<text text-anchor="middle" x="2387" y="-99.8" font-family="Times,serif" font-size="14.00">MatDialogModule</text>
</g>
<!-- MatDialogModule&#45;&gt;AppModule -->
<g id="edge28" class="edge">
<title>MatDialogModule&#45;&gt;AppModule</title>
<path fill="none" stroke="black" d="M2430.14,-122.22C2430.14,-122.22 2430.14,-143.73 2430.14,-143.73"/>
<polygon fill="black" stroke="black" points="2426.64,-143.73 2430.14,-153.73 2433.64,-143.73 2426.64,-143.73"/>
</g>
<!-- MatCardModule -->
<g id="node29" class="node">
<title>MatCardModule</title>
<polygon fill="#8dd3c7" stroke="black" points="4331.81,-122 4328.81,-126 4307.81,-126 4304.81,-122 4222.19,-122 4222.19,-86 4331.81,-86 4331.81,-122"/>
<text text-anchor="middle" x="4277" y="-99.8" font-family="Times,serif" font-size="14.00">MatCardModule</text>
</g>
<!-- MatCardModule&#45;&gt;AppModule -->
<g id="edge29" class="edge">
<title>MatCardModule&#45;&gt;AppModule</title>
<path fill="none" stroke="black" d="M4277,-122.32C4277,-145.66 4277,-183 4277,-183 4277,-183 2506.92,-183 2506.92,-183"/>
<polygon fill="black" stroke="black" points="2506.92,-179.5 2496.92,-183 2506.92,-186.5 2506.92,-179.5"/>
</g>
<!-- { provide: HTTP_INTERCEPTORS, useClass: JwtInterceptor, multi: &#160;} -->
<g id="node31" class="node">
<title>{ provide: HTTP_INTERCEPTORS, useClass: JwtInterceptor, multi: &#160;}</title>
<ellipse fill="#fdb462" stroke="black" cx="313" cy="-104" rx="289.13" ry="18"/>
<text text-anchor="middle" x="313" y="-99.8" font-family="Times,serif" font-size="14.00">{ provide: HTTP_INTERCEPTORS, useClass: JwtInterceptor, multi: &#160;}</text>
</g>
<!-- { provide: HTTP_INTERCEPTORS, useClass: JwtInterceptor, multi: &#160;}&#45;&gt;AppModule -->
<g id="edge31" class="edge">
<title>{ provide: HTTP_INTERCEPTORS, useClass: JwtInterceptor, multi: &#160;}&#45;&gt;AppModule</title>
<path fill="none" stroke="black" d="M313,-122.23C313,-146.93 313,-188 313,-188 313,-188 2403.17,-188 2403.17,-188"/>
<polygon fill="black" stroke="black" points="2403.17,-191.5 2413.17,-188 2403.17,-184.5 2403.17,-191.5"/>
</g>
<!-- RouterModule.forRoot(args) -->
<g id="node32" class="node">
<title>RouterModule.forRoot(args)</title>
<polygon fill="#8dd3c7" stroke="black" points="4946.84,-190 4943.84,-194 4922.84,-194 4919.84,-190 4769.16,-190 4769.16,-154 4946.84,-154 4946.84,-190"/>
<text text-anchor="middle" x="4858" y="-167.8" font-family="Times,serif" font-size="14.00">RouterModule.forRoot(args)</text>
</g>
<!-- RouterModule.forRoot(args)&#45;&gt;AppRoutingModule -->
<g id="edge32" class="edge">
<title>RouterModule.forRoot(args)&#45;&gt;AppRoutingModule</title>
<path fill="none" stroke="black" d="M4858,-153.71C4858,-131.79 4858,-98 4858,-98 4858,-98 4613.55,-98 4613.55,-98"/>
<polygon fill="black" stroke="black" points="4613.55,-94.5 4603.55,-98 4613.55,-101.5 4613.55,-94.5"/>
</g>
</g>
</svg>
